<?xml version="1.0" encoding="UTF-8" standalone="no"?>
<svg
   id="Layer_1"
   data-name="Layer 1"
   viewBox="0 0 1080 1080"
   version="1.1"
   sodipodi:docname="Design Assets-14.svg"
   inkscape:version="1.2 (dc2aedaf03, 2022-05-15)"
   xmlns:inkscape="http://www.inkscape.org/namespaces/inkscape"
   xmlns:sodipodi="http://sodipodi.sourceforge.net/DTD/sodipodi-0.dtd"
   xmlns="http://www.w3.org/2000/svg"
   xmlns:svg="http://www.w3.org/2000/svg">
  <sodipodi:namedview
     id="namedview515"
     pagecolor="#ffffff"
     bordercolor="#000000"
     borderopacity="0.25"
     inkscape:showpageshadow="2"
     inkscape:pageopacity="0.0"
     inkscape:pagecheckerboard="0"
     inkscape:deskcolor="#d1d1d1"
     showgrid="false"
     inkscape:zoom="0.30903185"
     inkscape:cx="498.33051"
     inkscape:cy="415.81474"
     inkscape:window-width="1920"
     inkscape:window-height="1051"
     inkscape:window-x="-9"
     inkscape:window-y="-9"
     inkscape:window-maximized="1"
     inkscape:current-layer="Layer_1" />
  <defs
     id="defs10">
    <style
       id="style2">
      .cls-1, .cls-2, .cls-3, .cls-4 {
        fill: #0d15e3;
      }

      .cls-2, .cls-5, .cls-6, .cls-3, .cls-4 {
        stroke-miterlimit: 10;
      }

      .cls-2, .cls-5, .cls-6, .cls-4 {
        stroke: #231f20;
      }

      .cls-7 {
        clip-path: url(#clippath-1);
      }

      .cls-5, .cls-6, .cls-3, .cls-4 {
        stroke-width: 2px;
      }

      .cls-5, .cls-8 {
        fill: none;
      }

      .cls-6, .cls-9 {
        fill: #231f20;
      }

      .cls-10 {
        clip-path: url(#clippath);
      }

      .cls-3 {
        stroke: #0d15e3;
      }

      .cls-11 {
        font-family: MicrosoftSansSerif, 'Microsoft Sans Serif';
        font-size: 31.44px;
      }
    </style>
    <clipPath
       id="clippath">
      <rect
         class="cls-8"
         y="-1114.27"
         width="1082.1"
         height="1082.1"
         id="rect4" />
    </clipPath>
    <clipPath
       id="clippath-1">
      <rect
         class="cls-8"
         x="3.66"
         y="2.62"
         width="1077.38"
         height="1077.38"
         id="rect7" />
    </clipPath>
  </defs>
  <g
     class="cls-7"
     clip-path="url(#clippath-1)"
     id="g512">
    <g
       id="g510">
      <path
         class="cls-3"
         d="M202.51,521.25c0-41.13-45.33-74.47-101.25-74.47v148.93c55.92,0,101.25-33.34,101.25-74.46Z"
         id="path316" />
      <path
         class="cls-3"
         d="M101.26,446.79v-148.93C45.33,297.86,0,331.2,0,372.32s45.33,74.46,101.26,74.46Z"
         id="path318" />
      <path
         class="cls-3"
         d="M265.05,240.28c-48.79,0-88.35-53.78-88.35-120.13h176.7c0,66.35-39.55,120.13-88.35,120.13Z"
         id="path320" />
      <path
         class="cls-3"
         d="M176.7,120.14H0C0,53.79,39.55,0,88.35,0s88.35,53.78,88.35,120.14Z"
         id="path322" />
      <path
         class="cls-3"
         d="M353.95,89.37c0,48.79,53.78,88.35,120.13,88.35V1.02c-66.35,0-120.13,39.55-120.13,88.35Z"
         id="path324" />
      <path
         class="cls-3"
         d="M474.08,177.72v176.7c66.36,0,120.14-39.55,120.14-88.35s-53.78-88.35-120.14-88.35Z"
         id="path326" />
      <path
         class="cls-3"
         d="M265.05,417.99c-48.79,0-88.35-53.78-88.35-120.13h176.7c0,66.35-39.55,120.13-88.35,120.13Z"
         id="path328" />
      <path
         class="cls-3"
         d="M176.7,297.86H0C0,231.51,39.55,177.72,88.35,177.72s88.35,53.78,88.35,120.14Z"
         id="path330" />
      <path
         class="cls-3"
         d="M498.71,417.99c-48.79,0-88.35-53.78-88.35-120.13h176.7c0,66.35-39.55,120.13-88.35,120.13Z"
         id="path332" />
      <path
         class="cls-3"
         d="M410.35,297.86H233.65c0-66.36,39.55-120.14,88.35-120.14s88.35,53.78,88.35,120.14Z"
         id="path334" />
      <path
         class="cls-3"
         d="M502.57,595.71c-48.79,0-88.35-53.78-88.35-120.13h176.7c0,66.35-39.55,120.13-88.35,120.13Z"
         id="path336" />
      <path
         class="cls-3"
         d="M414.21,475.58H237.51c0-66.36,39.55-120.14,88.35-120.14s88.35,53.78,88.35,120.14Z"
         id="path338" />
      <path
         class="cls-3"
         d="M88.34,595.71c48.79,0,88.35-53.78,88.35-120.13H0c0,66.35,39.55,120.13,88.35,120.13Z"
         id="path340" />
      <path
         class="cls-3"
         d="M176.7,475.58h176.7c0-66.36-39.55-120.14-88.35-120.14-48.79,0-88.35,53.78-88.35,120.14Z"
         id="path342" />
      <text
         class="cls-11"
         transform="translate(183.23 48.64)"
         id="text348"><tspan
           x="0"
           y="0"
           id="tspan344">The fringe </tspan><tspan
           x="0"
           y="29.23"
           id="tspan346">of design</tspan></text>
      <text
         class="cls-11"
         transform="translate(899.12 990.93)"
         id="text354"><tspan
           x="0"
           y="0"
           id="tspan350">The fringe </tspan><tspan
           x="0"
           y="29.23"
           id="tspan352">of design</tspan></text>
      <path
         d="M1054.76,33.35v-7.45h-19.83v-2.99h19.83v-7.38h2.67v17.82h-2.67Z"
         id="path356" />
      <path
         d="M1049.14,39.07c1.63,1.44,2.44,3.07,2.44,4.87,0,3.67-2,5.51-6,5.51h-10.65v-2.9h10.53c1.33,0,2.29-.24,2.87-.71,.58-.48,.88-1.26,.88-2.34,0-1.47-.87-2.95-2.61-4.42h-11.67v-2.9h22.51v2.9h-8.29Z"
         id="path358" />
      <path
         d="M1034.54,60.58c0-2.39,.75-4.32,2.25-5.77s3.59-2.18,6.27-2.18,4.75,.7,6.26,2.11c1.51,1.41,2.26,3.25,2.26,5.52s-.74,4.18-2.23,5.56-3.58,2.08-6.29,2.08h-.69v-12.27c-1.88,.12-3.28,.64-4.19,1.56-.91,.92-1.37,2.04-1.37,3.38,0,1.01,.26,1.93,.77,2.74,.52,.81,1.25,1.24,2.2,1.28v2.99c-1.68-.22-2.97-.98-3.88-2.28s-1.37-2.87-1.37-4.74Zm10.1,4.27c1.57-.23,2.74-.76,3.52-1.58,.78-.82,1.17-1.82,1.17-3.01s-.39-2.15-1.16-2.98c-.77-.83-1.95-1.36-3.52-1.58v9.15Z"
         id="path360" />
      <path
         d="M1048.94,82.89h-14.02v-2.89h14.02v-2.39h2.27v2.39h1.44c3.44,0,5.16,1.52,5.16,4.56,0,.93-.06,1.65-.18,2.16h-2.52c.1-.57,.15-1.16,.15-1.75,0-.71-.2-1.23-.59-1.57-.39-.34-1.08-.51-2.05-.51h-1.41v3.09h-2.27v-3.09Z"
         id="path362" />
      <path
         d="M1048.57,96.69c.12-.41,.18-1,.18-1.77,0-1.47-.77-2.74-2.32-3.79h-11.51v-2.9h16.29v2.9h-2.27c1.76,1.22,2.64,2.63,2.64,4.24,0,.41-.04,.85-.12,1.32h-2.89Z"
         id="path364" />
      <path
         d="M1054.3,101.6v-2.9h3.13v2.9h-3.13Zm-19.37,0v-2.9h16.29v2.9h-16.29Z"
         id="path366" />
      <path
         d="M1049.14,108.77c1.63,1.44,2.44,3.06,2.44,4.87,0,3.67-2,5.51-6,5.51h-10.65v-2.9h10.53c1.33,0,2.29-.24,2.87-.71,.58-.47,.88-1.26,.88-2.34,0-1.47-.87-2.95-2.61-4.42h-11.67v-2.9h16.29v2.9h-2.07Z"
         id="path368" />
      <path
         d="M1036.18,136.56c-5.24,0-7.86-2.37-7.86-7.09,0-2.05,.45-3.66,1.34-4.84,.89-1.18,2.09-1.77,3.59-1.77v2.99c-1.78,0-2.67,1.2-2.67,3.59,0,1.35,.37,2.4,1.11,3.13s2.2,1.11,4.37,1.11h.81c-1.56-1.29-2.33-2.84-2.33-4.65,0-2.13,.76-3.78,2.27-4.94,1.51-1.17,3.56-1.75,6.12-1.75s4.77,.65,6.32,1.96,2.33,2.95,2.33,4.92c0,1.76-.54,3.25-1.63,4.47h1.26v2.89h-15.03Zm3.42-2.89h7.74c1.32-1.25,1.98-2.68,1.98-4.28,0-1.24-.54-2.23-1.6-2.97s-2.66-1.11-4.78-1.11c-2.01,0-3.53,.35-4.57,1.05s-1.56,1.67-1.56,2.91c0,1.62,.93,3.09,2.79,4.41Z"
         id="path370" />
      <path
         d="M1034.54,147.76c0-2.39,.75-4.32,2.25-5.77s3.59-2.18,6.27-2.18,4.75,.7,6.26,2.11c1.51,1.41,2.26,3.25,2.26,5.52s-.74,4.18-2.23,5.56-3.58,2.08-6.29,2.08h-.69v-12.27c-1.88,.12-3.28,.64-4.19,1.56-.91,.92-1.37,2.04-1.37,3.38,0,1.01,.26,1.93,.77,2.74,.52,.81,1.25,1.24,2.2,1.28v2.99c-1.68-.22-2.97-.98-3.88-2.28s-1.37-2.87-1.37-4.74Zm10.1,4.27c1.57-.23,2.74-.76,3.52-1.58,.78-.82,1.17-1.82,1.17-3.01s-.39-2.15-1.16-2.98c-.77-.83-1.95-1.36-3.52-1.58v9.15Z"
         id="path372" />
      <path
         d="M1022.35,23.57c0,2.32-.74,4.18-2.23,5.56s-3.58,2.08-6.29,2.08-4.8-.69-6.29-2.08-2.23-3.24-2.23-5.56,.74-4.16,2.23-5.55,3.58-2.08,6.29-2.08,4.81,.69,6.29,2.08,2.23,3.24,2.23,5.55Zm-14.77,0c0,1.38,.52,2.5,1.57,3.36s2.61,1.29,4.67,1.29,3.64-.43,4.69-1.29,1.57-1.98,1.57-3.36-.53-2.5-1.57-3.36-2.61-1.29-4.69-1.29-3.63,.43-4.67,1.29-1.57,1.98-1.57,3.36Z"
         id="path374" />
      <path
         d="M1019.71,37.85h-14.02v-2.88h14.02v-2.39h2.27v2.39h1.44c3.44,0,5.16,1.52,5.16,4.56,0,.93-.06,1.65-.18,2.16h-2.52c.1-.57,.15-1.16,.15-1.75,0-.71-.2-1.23-.59-1.57-.39-.34-1.08-.52-2.05-.52h-1.41v3.09h-2.27v-3.09Z"
         id="path376" />
      <path
         d="M1007.64,61.86c-1.56-1.29-2.33-2.84-2.33-4.65,0-2.13,.76-3.78,2.27-4.94,1.51-1.17,3.56-1.75,6.12-1.75s4.77,.65,6.32,1.96,2.33,2.95,2.33,4.92c0,1.76-.54,3.25-1.63,4.47h7.48v2.89h-22.51v-2.89h1.95Zm2.73,0h7.74c1.32-1.25,1.98-2.68,1.98-4.28,0-1.24-.54-2.23-1.6-2.97s-2.66-1.11-4.78-1.11c-2.01,0-3.53,.35-4.57,1.05s-1.56,1.67-1.56,2.91c0,1.62,.93,3.09,2.79,4.41Z"
         id="path378" />
      <path
         d="M1005.31,75.95c0-2.39,.75-4.32,2.25-5.77s3.59-2.18,6.27-2.18,4.75,.7,6.26,2.11c1.51,1.41,2.26,3.25,2.26,5.52s-.74,4.18-2.23,5.56-3.58,2.08-6.29,2.08h-.69v-12.27c-1.88,.12-3.28,.64-4.19,1.56-.91,.92-1.37,2.04-1.37,3.38,0,1.01,.26,1.93,.77,2.74,.52,.81,1.25,1.24,2.2,1.28v2.99c-1.68-.22-2.97-.98-3.88-2.28s-1.37-2.87-1.37-4.74Zm10.1,4.27c1.57-.23,2.74-.76,3.52-1.58,.78-.82,1.17-1.82,1.17-3.01s-.39-2.15-1.16-2.98c-.77-.83-1.95-1.36-3.52-1.58v9.15Z"
         id="path380" />
      <path
         d="M1005.31,92.33c0-4.45,1.75-6.78,5.25-6.99v2.9c-1.99,.02-2.98,1.37-2.98,4.05,0,1.2,.25,2.11,.74,2.74s1.12,.95,1.87,.95,1.26-.31,1.56-.92c.3-.61,.69-1.88,1.17-3.8,.48-1.92,1.02-3.32,1.61-4.21s1.64-1.33,3.13-1.33c1.35,0,2.47,.55,3.35,1.65,.88,1.1,1.33,2.57,1.33,4.41,0,4.27-1.52,6.45-4.56,6.54v-2.89c1.54-.1,2.3-1.25,2.3-3.45,0-.97-.18-1.78-.55-2.42-.37-.64-.91-.96-1.61-.96-.63,0-1.09,.24-1.37,.74-.28,.49-.66,1.72-1.14,3.69-.48,1.97-1.03,3.43-1.67,4.39s-1.73,1.44-3.29,1.44-2.71-.59-3.69-1.77c-.98-1.18-1.47-2.77-1.47-4.77Z"
         id="path382" />
      <path
         d="M1025.06,105.13v-2.9h3.13v2.9h-3.13Zm-19.37,0v-2.9h16.29v2.9h-16.29Z"
         id="path384" />
      <path
         d="M1006.95,122.6c-5.24,0-7.86-2.36-7.86-7.09,0-2.05,.45-3.66,1.34-4.84s2.09-1.77,3.59-1.77v2.99c-1.78,0-2.67,1.2-2.67,3.59,0,1.35,.37,2.39,1.11,3.13,.74,.74,2.2,1.11,4.37,1.11h.81c-1.56-1.29-2.33-2.84-2.33-4.65,0-2.13,.76-3.78,2.27-4.94,1.51-1.17,3.56-1.75,6.12-1.75s4.77,.65,6.32,1.96,2.33,2.95,2.33,4.92c0,1.76-.54,3.25-1.63,4.47h1.26v2.89h-15.03Zm3.42-2.89h7.74c1.32-1.25,1.98-2.68,1.98-4.28,0-1.24-.54-2.23-1.6-2.97s-2.66-1.11-4.78-1.11c-2.01,0-3.53,.35-4.57,1.05s-1.56,1.67-1.56,2.91c0,1.62,.93,3.09,2.79,4.41Z"
         id="path386" />
      <path
         d="M1019.91,129.79c1.63,1.44,2.44,3.07,2.44,4.87,0,3.67-2,5.51-6,5.51h-10.65v-2.9h10.53c1.33,0,2.29-.24,2.87-.71,.58-.48,.88-1.26,.88-2.34,0-1.47-.87-2.95-2.61-4.42h-11.67v-2.9h16.29v2.9h-2.07Z"
         id="path388" />
      <path
         d="M633.51,720.32v-7.45h-19.83v-2.99h19.83v-7.38h2.67v17.82h-2.67Z"
         id="path390" />
      <path
         d="M627.89,726.04c1.63,1.44,2.44,3.07,2.44,4.87,0,3.67-2,5.51-6,5.51h-10.65v-2.9h10.53c1.33,0,2.29-.24,2.87-.71,.58-.48,.88-1.26,.88-2.34,0-1.47-.87-2.95-2.61-4.42h-11.67v-2.9h22.51v2.9h-8.29Z"
         id="path392" />
      <path
         d="M613.29,747.55c0-2.39,.75-4.32,2.25-5.77s3.59-2.18,6.27-2.18,4.75,.7,6.26,2.11c1.51,1.41,2.26,3.25,2.26,5.52s-.74,4.18-2.23,5.56-3.58,2.08-6.29,2.08h-.69v-12.27c-1.88,.12-3.28,.64-4.19,1.56-.91,.92-1.37,2.04-1.37,3.38,0,1.01,.26,1.93,.77,2.74,.52,.81,1.25,1.24,2.2,1.28v2.99c-1.68-.22-2.97-.98-3.88-2.28s-1.37-2.87-1.37-4.74Zm10.1,4.27c1.57-.23,2.74-.76,3.52-1.58,.78-.82,1.17-1.82,1.17-3.01s-.39-2.15-1.16-2.98c-.77-.83-1.95-1.36-3.52-1.58v9.15Z"
         id="path394" />
      <path
         d="M627.69,769.86h-14.02v-2.89h14.02v-2.39h2.27v2.39h1.44c3.44,0,5.16,1.52,5.16,4.56,0,.93-.06,1.65-.18,2.16h-2.52c.1-.57,.15-1.16,.15-1.75,0-.71-.2-1.23-.59-1.57-.39-.34-1.08-.51-2.05-.51h-1.41v3.09h-2.27v-3.09Z"
         id="path396" />
      <path
         d="M627.32,783.66c.12-.41,.18-1,.18-1.77,0-1.47-.77-2.74-2.32-3.79h-11.51v-2.9h16.29v2.9h-2.27c1.76,1.22,2.64,2.63,2.64,4.24,0,.41-.04,.85-.12,1.32h-2.89Z"
         id="path398" />
      <path
         d="M633.05,788.57v-2.9h3.13v2.9h-3.13Zm-19.37,0v-2.9h16.29v2.9h-16.29Z"
         id="path400" />
      <path
         d="M627.89,795.74c1.63,1.44,2.44,3.06,2.44,4.87,0,3.67-2,5.51-6,5.51h-10.65v-2.9h10.53c1.33,0,2.29-.24,2.87-.71,.58-.47,.88-1.26,.88-2.34,0-1.47-.87-2.95-2.61-4.42h-11.67v-2.9h16.29v2.9h-2.07Z"
         id="path402" />
      <path
         d="M614.94,823.53c-5.24,0-7.86-2.37-7.86-7.09,0-2.05,.45-3.66,1.34-4.84,.89-1.18,2.09-1.77,3.59-1.77v2.99c-1.78,0-2.67,1.2-2.67,3.59,0,1.35,.37,2.4,1.11,3.13s2.2,1.11,4.37,1.11h.81c-1.56-1.29-2.33-2.84-2.33-4.65,0-2.13,.76-3.78,2.27-4.94,1.51-1.17,3.56-1.75,6.12-1.75s4.77,.65,6.32,1.96,2.33,2.95,2.33,4.92c0,1.76-.54,3.25-1.63,4.47h1.26v2.89h-15.03Zm3.42-2.89h7.74c1.32-1.25,1.98-2.68,1.98-4.28,0-1.24-.54-2.23-1.6-2.97s-2.66-1.11-4.78-1.11c-2.01,0-3.53,.35-4.57,1.05s-1.56,1.67-1.56,2.91c0,1.62,.93,3.09,2.79,4.41Z"
         id="path404" />
      <path
         d="M613.29,834.73c0-2.39,.75-4.32,2.25-5.77s3.59-2.18,6.27-2.18,4.75,.7,6.26,2.11c1.51,1.41,2.26,3.25,2.26,5.52s-.74,4.18-2.23,5.56-3.58,2.08-6.29,2.08h-.69v-12.27c-1.88,.12-3.28,.64-4.19,1.56-.91,.92-1.37,2.04-1.37,3.38,0,1.01,.26,1.93,.77,2.74,.52,.81,1.25,1.24,2.2,1.28v2.99c-1.68-.22-2.97-.98-3.88-2.28s-1.37-2.87-1.37-4.74Zm10.1,4.27c1.57-.23,2.74-.76,3.52-1.58,.78-.82,1.17-1.82,1.17-3.01s-.39-2.15-1.16-2.98c-.77-.83-1.95-1.36-3.52-1.58v9.15Z"
         id="path406" />
      <path
         d="M601.1,710.54c0,2.32-.74,4.18-2.23,5.56s-3.58,2.08-6.29,2.08-4.8-.69-6.29-2.08-2.23-3.24-2.23-5.56,.74-4.16,2.23-5.55,3.58-2.08,6.29-2.08,4.81,.69,6.29,2.08,2.23,3.24,2.23,5.55Zm-14.77,0c0,1.38,.52,2.5,1.57,3.36s2.61,1.29,4.67,1.29,3.64-.43,4.69-1.29,1.57-1.98,1.57-3.36-.53-2.5-1.57-3.36-2.61-1.29-4.69-1.29-3.63,.43-4.67,1.29-1.57,1.98-1.57,3.36Z"
         id="path408" />
      <path
         d="M598.46,724.81h-14.02v-2.88h14.02v-2.39h2.27v2.39h1.44c3.44,0,5.16,1.52,5.16,4.56,0,.93-.06,1.65-.18,2.16h-2.52c.1-.57,.15-1.16,.15-1.75,0-.71-.2-1.23-.59-1.57-.39-.34-1.08-.52-2.05-.52h-1.41v3.09h-2.27v-3.09Z"
         id="path410" />
      <path
         d="M586.39,748.82c-1.56-1.29-2.33-2.84-2.33-4.65,0-2.13,.76-3.78,2.27-4.94,1.51-1.17,3.56-1.75,6.12-1.75s4.77,.65,6.32,1.96,2.33,2.95,2.33,4.92c0,1.76-.54,3.25-1.63,4.47h7.48v2.89h-22.51v-2.89h1.95Zm2.73,0h7.74c1.32-1.25,1.98-2.68,1.98-4.28,0-1.24-.54-2.23-1.6-2.97s-2.66-1.11-4.78-1.11c-2.01,0-3.53,.35-4.57,1.05s-1.56,1.67-1.56,2.91c0,1.62,.93,3.09,2.79,4.41Z"
         id="path412" />
      <path
         d="M584.06,762.92c0-2.39,.75-4.32,2.25-5.77s3.59-2.18,6.27-2.18,4.75,.7,6.26,2.11c1.51,1.41,2.26,3.25,2.26,5.52s-.74,4.18-2.23,5.56-3.58,2.08-6.29,2.08h-.69v-12.27c-1.88,.12-3.28,.64-4.19,1.56-.91,.92-1.37,2.04-1.37,3.38,0,1.01,.26,1.93,.77,2.74,.52,.81,1.25,1.24,2.2,1.28v2.99c-1.68-.22-2.97-.98-3.88-2.28s-1.37-2.87-1.37-4.74Zm10.1,4.27c1.57-.23,2.74-.76,3.52-1.58,.78-.82,1.17-1.82,1.17-3.01s-.39-2.15-1.16-2.98c-.77-.83-1.95-1.36-3.52-1.58v9.15Z"
         id="path414" />
      <path
         d="M584.06,779.3c0-4.45,1.75-6.78,5.25-6.99v2.9c-1.99,.02-2.98,1.37-2.98,4.05,0,1.2,.25,2.11,.74,2.74s1.12,.95,1.87,.95,1.26-.31,1.56-.92c.3-.61,.69-1.88,1.17-3.8,.48-1.92,1.02-3.32,1.61-4.21s1.64-1.33,3.13-1.33c1.35,0,2.47,.55,3.35,1.65,.88,1.1,1.33,2.57,1.33,4.41,0,4.27-1.52,6.45-4.56,6.54v-2.89c1.54-.1,2.3-1.25,2.3-3.45,0-.97-.18-1.78-.55-2.42-.37-.64-.91-.96-1.61-.96-.63,0-1.09,.24-1.37,.74-.28,.49-.66,1.72-1.14,3.69-.48,1.97-1.03,3.43-1.67,4.39s-1.73,1.44-3.29,1.44-2.71-.59-3.69-1.77c-.98-1.18-1.47-2.77-1.47-4.77Z"
         id="path416" />
      <path
         d="M603.82,792.1v-2.9h3.13v2.9h-3.13Zm-19.37,0v-2.9h16.29v2.9h-16.29Z"
         id="path418" />
      <path
         d="M585.7,809.57c-5.24,0-7.86-2.36-7.86-7.09,0-2.05,.45-3.66,1.34-4.84s2.09-1.77,3.59-1.77v2.99c-1.78,0-2.67,1.2-2.67,3.59,0,1.35,.37,2.39,1.11,3.13,.74,.74,2.2,1.11,4.37,1.11h.81c-1.56-1.29-2.33-2.84-2.33-4.65,0-2.13,.76-3.78,2.27-4.94,1.51-1.17,3.56-1.75,6.12-1.75s4.77,.65,6.32,1.96,2.33,2.95,2.33,4.92c0,1.76-.54,3.25-1.63,4.47h1.26v2.89h-15.03Zm3.42-2.89h7.74c1.32-1.25,1.98-2.68,1.98-4.28,0-1.24-.54-2.23-1.6-2.97s-2.66-1.11-4.78-1.11c-2.01,0-3.53,.35-4.57,1.05s-1.56,1.67-1.56,2.91c0,1.62,.93,3.09,2.79,4.41Z"
         id="path420" />
      <path
         d="M598.66,816.75c1.63,1.44,2.44,3.07,2.44,4.87,0,3.67-2,5.51-6,5.51h-10.65v-2.9h10.53c1.33,0,2.29-.24,2.87-.71,.58-.48,.88-1.26,.88-2.34,0-1.47-.87-2.95-2.61-4.42h-11.67v-2.9h16.29v2.9h-2.07Z"
         id="path422" />
      <path
         class="cls-3"
         d="M688.29,521.25c0-41.13-45.33-74.47-101.25-74.47v148.93c55.92,0,101.25-33.34,101.25-74.46Z"
         id="path424" />
      <path
         class="cls-3"
         d="M587.03,446.79v-148.93c-55.93,0-101.26,33.34-101.26,74.46s45.33,74.46,101.26,74.46Z"
         id="path426" />
      <path
         class="cls-3"
         d="M750.83,240.28c-48.79,0-88.35-53.78-88.35-120.13h176.7c0,66.35-39.55,120.13-88.35,120.13Z"
         id="path428" />
      <path
         class="cls-3"
         d="M662.47,120.14h-176.7C485.78,53.79,525.33,0,574.12,0s88.35,53.78,88.35,120.14Z"
         id="path430" />
      <path
         class="cls-3"
         d="M839.73,89.37c0,48.79,53.78,88.35,120.13,88.35V1.02c-66.35,0-120.13,39.55-120.13,88.35Z"
         id="path432" />
      <path
         class="cls-3"
         d="M959.86,177.72v176.7c66.36,0,120.14-39.55,120.14-88.35s-53.78-88.35-120.14-88.35Z"
         id="path434" />
      <path
         class="cls-3"
         d="M750.83,417.99c-48.79,0-88.35-53.78-88.35-120.13h176.7c0,66.35-39.55,120.13-88.35,120.13Z"
         id="path436" />
      <path
         class="cls-3"
         d="M662.47,297.86h-176.7c0-66.36,39.55-120.14,88.35-120.14s88.35,53.78,88.35,120.14Z"
         id="path438" />
      <path
         class="cls-3"
         d="M984.48,417.99c-48.79,0-88.35-53.78-88.35-120.13h176.7c0,66.35-39.55,120.13-88.35,120.13Z"
         id="path440" />
      <path
         class="cls-3"
         d="M896.13,297.86h-176.7c0-66.36,39.55-120.14,88.35-120.14s88.35,53.78,88.35,120.14Z"
         id="path442" />
      <path
         class="cls-3"
         d="M988.34,595.71c-48.79,0-88.35-53.78-88.35-120.13h176.7c0,66.35-39.55,120.13-88.35,120.13Z"
         id="path444" />
      <path
         class="cls-3"
         d="M899.99,475.58h-176.7c0-66.36,39.55-120.14,88.35-120.14s88.35,53.78,88.35,120.14Z"
         id="path446" />
      <path
         class="cls-3"
         d="M574.12,595.71c48.79,0,88.35-53.78,88.35-120.13h-176.7c0,66.35,39.55,120.13,88.35,120.13Z"
         id="path448" />
      <path
         class="cls-3"
         d="M662.48,475.58h176.7c0-66.36-39.55-120.14-88.35-120.14-48.79,0-88.35,53.78-88.35,120.14Z"
         id="path450" />
      <path
         class="cls-1"
         d="M467.63,560.52c3.22,0,3.22-5,0-5s-3.22,5,0,5h0Z"
         id="path452" />
      <path
         class="cls-3"
         d="M989.17,833.82c48.79,0,88.35,53.78,88.35,120.13h-176.7c0-66.35,39.55-120.13,88.35-120.13Z"
         id="path454" />
      <path
         class="cls-3"
         d="M900.27,984.73c0-48.79-53.78-88.35-120.13-88.35v176.7c66.35,0,120.13-39.55,120.13-88.35Z"
         id="path456" />
      <path
         class="cls-3"
         d="M780.14,896.37v-176.7c-66.36,0-120.14,39.55-120.14,88.35,0,48.79,53.78,88.35,120.14,88.35Z"
         id="path458" />
      <path
         class="cls-3"
         d="M989.17,656.1c48.79,0,88.35,53.78,88.35,120.13h-176.7c0-66.35,39.55-120.13,88.35-120.13Z"
         id="path460" />
      <path
         class="cls-3"
         d="M755.51,656.1c48.79,0,88.35,53.78,88.35,120.13h-176.7c0-66.35,39.55-120.13,88.35-120.13Z"
         id="path462" />
      <path
         class="cls-3"
         d="M843.87,776.24h176.7c0,66.36-39.55,120.14-88.35,120.14-48.79,0-88.35-53.78-88.35-120.14Z"
         id="path464" />
      <path
         class="cls-3"
         d="M751.65,478.39c48.79,0,88.35,53.78,88.35,120.13h-176.7c0-66.35,39.55-120.13,88.35-120.13Z"
         id="path466" />
      <path
         class="cls-3"
         d="M840.01,598.52h176.7c0,66.36-39.55,120.14-88.35,120.14-48.79,0-88.35-53.78-88.35-120.14Z"
         id="path468" />
      <path
         class="cls-3"
         d="M1077.52,598.52h-176.7c0,66.36,39.55,120.14,88.35,120.14,48.79,0,88.35-53.78,88.35-120.14Z"
         id="path470" />
      <path
         class="cls-3"
         d="M565.93,552.84c0,41.13,45.33,74.47,101.25,74.47v-148.93c-55.92,0-101.25,33.34-101.25,74.46Z"
         id="path472" />
      <path
         class="cls-3"
         d="M667.18,627.31v148.93c55.93,0,101.26-33.34,101.26-74.46s-45.33-74.46-101.26-74.46Z"
         id="path474" />
      <path
         class="cls-3"
         d="M503.39,833.82c48.79,0,88.35,53.78,88.35,120.13h-176.7c0-66.35,39.55-120.13,88.35-120.13Z"
         id="path476" />
      <path
         class="cls-3"
         d="M591.75,953.95h176.7c0,66.36-39.55,120.14-88.35,120.14s-88.35-53.78-88.35-120.14Z"
         id="path478" />
      <path
         class="cls-3"
         d="M414.49,984.73c0-48.79-53.78-88.35-120.13-88.35v176.7c66.35,0,120.13-39.55,120.13-88.35Z"
         id="path480" />
      <path
         class="cls-3"
         d="M294.36,896.37v-176.7c-66.36,0-120.14,39.55-120.14,88.35,0,48.79,53.78,88.35,120.14,88.35Z"
         id="path482" />
      <path
         class="cls-3"
         d="M269.73,656.1c48.79,0,88.35,53.78,88.35,120.13H181.39c0-66.35,39.55-120.13,88.35-120.13Z"
         id="path484" />
      <path
         class="cls-3"
         d="M358.09,776.24h176.7c0,66.36-39.55,120.14-88.35,120.14-48.79,0-88.35-53.78-88.35-120.14Z"
         id="path486" />
      <path
         class="cls-3"
         d="M265.87,478.39c48.79,0,88.35,53.78,88.35,120.13H177.53c0-66.35,39.55-120.13,88.35-120.13Z"
         id="path488" />
      <path
         class="cls-3"
         d="M354.23,598.52h176.7c0,66.36-39.55,120.14-88.35,120.14-48.79,0-88.35-53.78-88.35-120.14Z"
         id="path490" />
      <path
         class="cls-3"
         d="M680.1,478.39c-48.79,0-88.35,53.78-88.35,120.13h176.7c0-66.35-39.55-120.13-88.35-120.13Z"
         id="path492" />
      <path
         class="cls-3"
         d="M591.74,598.52h-176.7c0,66.36,39.55,120.14,88.35,120.14,48.79,0,88.35-53.78,88.35-120.14Z"
         id="path494" />
      <path
         class="cls-1"
         d="M786.59,518.58c3.22,0,3.22-5,0-5s-3.22,5,0,5h0Z"
         id="path496" />
      <path
         class="cls-3"
         d="M-23.15,552.84c0,41.13,45.33,74.47,101.25,74.47v-148.93c-55.92,0-101.25,33.34-101.25,74.46Z"
         id="path498" />
      <path
         class="cls-3"
         d="M79.1,627.31v148.93c55.93,0,101.26-33.34,101.26-74.46s-45.33-74.46-101.26-74.46Z"
         id="path500" />
      <path
         class="cls-3"
         d="M3.66,953.96H180.36c0,66.36-39.55,120.14-88.35,120.14S3.66,1020.31,3.66,953.96Z"
         id="path502" />
      <path
         class="cls-3"
         d="M3.66,776.24H180.36c0,66.36-39.55,120.14-88.35,120.14S3.66,842.59,3.66,776.24Z"
         id="path504" />
      <path
         class="cls-3"
         d="M92.01,478.39c-48.79,0-88.35,53.78-88.35,120.13H180.36c0-66.35-39.55-120.13-88.35-120.13Z"
         id="path506" />
      <path
         class="cls-1"
         d="M198.5,518.58c3.22,0,3.22-5,0-5s-3.22,5,0,5h0Z"
         id="path508" />
    </g>
  </g>
</svg>
