<?xml version="1.0" encoding="UTF-8" standalone="no"?>
<svg
   id="Layer_1"
   data-name="Layer 1"
   viewBox="0 0 1080 1080"
   version="1.1"
   sodipodi:docname="Pattern 1.svg"
   inkscape:version="1.2 (dc2aedaf03, 2022-05-15)"
   xmlns:inkscape="http://www.inkscape.org/namespaces/inkscape"
   xmlns:sodipodi="http://sodipodi.sourceforge.net/DTD/sodipodi-0.dtd"
   xmlns="http://www.w3.org/2000/svg"
   xmlns:svg="http://www.w3.org/2000/svg">
  <sodipodi:namedview
     id="namedview2285"
     pagecolor="#ffffff"
     bordercolor="#000000"
     borderopacity="0.25"
     inkscape:showpageshadow="2"
     inkscape:pageopacity="0.0"
     inkscape:pagecheckerboard="0"
     inkscape:deskcolor="#d1d1d1"
     showgrid="false"
     inkscape:zoom="0.21851852"
     inkscape:cx="-388.98305"
     inkscape:cy="542.28814"
     inkscape:window-width="1920"
     inkscape:window-height="1051"
     inkscape:window-x="-9"
     inkscape:window-y="-9"
     inkscape:window-maximized="1"
     inkscape:current-layer="Layer_1" />
  <defs
     id="defs1530">
    <style
       id="style1525">
      .cls-1, .cls-2, .cls-3 {
        fill: #0d15e3;
      }

      .cls-2, .cls-4, .cls-5, .cls-3 {
        stroke: #231f20;
        stroke-miterlimit: 10;
      }

      .cls-4, .cls-5, .cls-3 {
        stroke-width: 2px;
      }

      .cls-4, .cls-6 {
        fill: none;
      }

      .cls-5, .cls-7 {
        fill: #231f20;
      }

      .cls-8 {
        clip-path: url(#clippath);
      }
    </style>
    <clipPath
       id="clippath">
      <rect
         class="cls-6"
         y="-2.1"
         width="1082.1"
         height="1082.1"
         id="rect1527" />
    </clipPath>
  </defs>
  <g
     class="cls-8"
     clip-path="url(#clippath)"
     id="g2282">
    <g
       id="g2280">
      <path
         class="cls-7"
         d="M181.12-89.7v6.55c70.61,0,127.84,57.24,127.84,127.84s-57.23,127.84-127.84,127.84v6.55c74.23,0,134.39-60.17,134.39-134.39S255.34-89.7,181.12-89.7Z"
         id="path1532" />
      <g
         id="g1538">
        <path
           class="cls-4"
           d="M122.76,44.69c0,24.67-27.19,44.67-60.74,44.67V.02C95.57,.02,122.76,20.02,122.76,44.69Z"
           id="path1534" />
        <path
           class="cls-4"
           d="M62.03,89.36v89.34c-33.55,0-60.74-20-60.74-44.67s27.19-44.67,60.74-44.67Z"
           id="path1536" />
      </g>
      <g
         id="g1544">
        <path
           class="cls-4"
           d="M122.76,224.4c0,24.67-27.19,44.67-60.74,44.67v-89.34c33.55,0,60.74,20,60.74,44.67Z"
           id="path1540" />
        <path
           class="cls-4"
           d="M62.03,269.07v89.34c-33.55,0-60.74-20-60.74-44.67s27.19-44.67,60.74-44.67Z"
           id="path1542" />
      </g>
      <g
         id="g1550">
        <path
           class="cls-3"
           d="M122.76,177.44c0-24.67-27.19-44.67-60.74-44.67v89.34c33.55,0,60.74-20,60.74-44.67Z"
           id="path1546" />
        <path
           class="cls-3"
           d="M62.03,132.77V43.43C28.48,43.43,1.28,63.43,1.28,88.1s27.19,44.67,60.74,44.67Z"
           id="path1548" />
      </g>
      <g
         id="g1556">
        <path
           class="cls-5"
           d="M122.76,358.02c0-24.67-27.19-44.67-60.74-44.67v89.34c33.55,0,60.74-20,60.74-44.67Z"
           id="path1552" />
        <path
           class="cls-5"
           d="M62.03,313.35v-89.34c-33.55,0-60.74,20-60.74,44.67s27.19,44.67,60.74,44.67Z"
           id="path1554" />
      </g>
      <g
         id="g1562">
        <path
           class="cls-5"
           d="M241.86,42.57c0,24.67-27.19,44.67-60.74,44.67V-2.1c33.55,0,60.74,20,60.74,44.67Z"
           id="path1558" />
        <path
           class="cls-5"
           d="M181.12,87.24v89.34c-33.55,0-60.74-20-60.74-44.67s27.19-44.67,60.74-44.67Z"
           id="path1560" />
      </g>
      <g
         id="g1568">
        <path
           class="cls-2"
           d="M241.86,222.28c0,24.67-27.19,44.67-60.74,44.67v-89.34c33.55,0,60.74,20,60.74,44.67Z"
           id="path1564" />
        <path
           class="cls-2"
           d="M181.12,266.95v89.34c-33.55,0-60.74-20-60.74-44.67s27.19-44.67,60.74-44.67Z"
           id="path1566" />
      </g>
      <g
         id="g1574">
        <path
           class="cls-4"
           d="M241.86,175.32c0-24.67-27.19-44.67-60.74-44.67v89.34c33.55,0,60.74-20,60.74-44.67Z"
           id="path1570" />
        <path
           class="cls-4"
           d="M181.12,130.65V41.31c-33.55,0-60.74,20-60.74,44.67s27.19,44.67,60.74,44.67Z"
           id="path1572" />
      </g>
      <g
         id="g1580">
        <path
           class="cls-4"
           d="M241.86,355.9c0-24.67-27.19-44.67-60.74-44.67v89.34c33.55,0,60.74-20,60.74-44.67Z"
           id="path1576" />
        <path
           class="cls-4"
           d="M181.12,311.22v-89.34c-33.55,0-60.74,20-60.74,44.67s27.19,44.67,60.74,44.67Z"
           id="path1578" />
      </g>
      <g
         id="g1586">
        <path
           class="cls-4"
           d="M360.95,40.44c0,24.67-27.19,44.67-60.74,44.67V-4.23c33.55,0,60.74,20,60.74,44.67Z"
           id="path1582" />
        <path
           class="cls-4"
           d="M300.21,85.12v89.34c-33.55,0-60.74-20-60.74-44.67s27.19-44.67,60.74-44.67Z"
           id="path1584" />
      </g>
      <g
         id="g1592">
        <path
           class="cls-4"
           d="M360.95,220.15c0,24.67-27.19,44.67-60.74,44.67v-89.34c33.55,0,60.74,20,60.74,44.67Z"
           id="path1588" />
        <path
           class="cls-4"
           d="M300.21,264.82v89.34c-33.55,0-60.74-20-60.74-44.67s27.19-44.67,60.74-44.67Z"
           id="path1590" />
      </g>
      <g
         id="g1598">
        <path
           class="cls-3"
           d="M360.95,173.2c0-24.67-27.19-44.67-60.74-44.67v89.34c33.55,0,60.74-20,60.74-44.67Z"
           id="path1594" />
        <path
           class="cls-3"
           d="M300.21,128.53V39.19c-33.55,0-60.74,20-60.74,44.67s27.19,44.67,60.74,44.67Z"
           id="path1596" />
      </g>
      <g
         id="g1604">
        <path
           class="cls-5"
           d="M360.95,353.77c0-24.67-27.19-44.67-60.74-44.67v89.34c33.55,0,60.74-20,60.74-44.67Z"
           id="path1600" />
        <path
           class="cls-5"
           d="M300.21,309.1v-89.34c-33.55,0-60.74,20-60.74,44.67s27.19,44.67,60.74,44.67Z"
           id="path1602" />
      </g>
      <path
         class="cls-1"
         d="M181.11,575.94v6.55c-70.61,0-127.84,57.24-127.84,127.84s57.23,127.84,127.84,127.84v6.55c-74.23,0-134.39-60.17-134.39-134.39s60.17-134.39,134.39-134.39Z"
         id="path1606" />
      <g
         id="g1612">
        <path
           class="cls-4"
           d="M122.76,448.13c0,24.67-27.19,44.67-60.74,44.67v-89.34c33.55,0,60.74,20,60.74,44.67Z"
           id="path1608" />
        <path
           class="cls-4"
           d="M62.03,492.8v89.34c-33.55,0-60.74-20-60.74-44.67s27.19-44.67,60.74-44.67Z"
           id="path1610" />
      </g>
      <g
         id="g1618">
        <path
           class="cls-4"
           d="M122.76,627.84c0,24.67-27.19,44.67-60.74,44.67v-89.34c33.55,0,60.74,20,60.74,44.67Z"
           id="path1614" />
        <path
           class="cls-4"
           d="M62.03,672.51v89.34c-33.55,0-60.74-20-60.74-44.67s27.19-44.67,60.74-44.67Z"
           id="path1616" />
      </g>
      <g
         id="g1624">
        <path
           class="cls-3"
           d="M122.76,580.88c0-24.67-27.19-44.67-60.74-44.67v89.34c33.55,0,60.74-20,60.74-44.67Z"
           id="path1620" />
        <path
           class="cls-3"
           d="M62.03,536.21v-89.34c-33.55,0-60.74,20-60.74,44.67s27.19,44.67,60.74,44.67Z"
           id="path1622" />
      </g>
      <g
         id="g1630">
        <path
           class="cls-5"
           d="M122.76,761.46c0-24.67-27.19-44.67-60.74-44.67v89.34c33.55,0,60.74-20,60.74-44.67Z"
           id="path1626" />
        <path
           class="cls-5"
           d="M62.03,716.79v-89.34c-33.55,0-60.74,20-60.74,44.67s27.19,44.67,60.74,44.67Z"
           id="path1628" />
      </g>
      <g
         id="g1636">
        <path
           class="cls-5"
           d="M241.86,446.01c0,24.67-27.19,44.67-60.74,44.67v-89.34c33.55,0,60.74,20,60.74,44.67Z"
           id="path1632" />
        <path
           class="cls-5"
           d="M181.12,490.68v89.34c-33.55,0-60.74-20-60.74-44.67s27.19-44.67,60.74-44.67Z"
           id="path1634" />
      </g>
      <g
         id="g1642">
        <path
           class="cls-2"
           d="M241.86,625.71c0,24.67-27.19,44.67-60.74,44.67v-89.34c33.55,0,60.74,20,60.74,44.67Z"
           id="path1638" />
        <path
           class="cls-2"
           d="M181.12,670.39v89.34c-33.55,0-60.74-20-60.74-44.67s27.19-44.67,60.74-44.67Z"
           id="path1640" />
      </g>
      <g
         id="g1648">
        <path
           class="cls-4"
           d="M241.86,578.76c0-24.67-27.19-44.67-60.74-44.67v89.34c33.55,0,60.74-20,60.74-44.67Z"
           id="path1644" />
        <path
           class="cls-4"
           d="M181.12,534.09v-89.34c-33.55,0-60.74,20-60.74,44.67s27.19,44.67,60.74,44.67Z"
           id="path1646" />
      </g>
      <g
         id="g1654">
        <path
           class="cls-4"
           d="M241.86,759.34c0-24.67-27.19-44.67-60.74-44.67v89.34c33.55,0,60.74-20,60.74-44.67Z"
           id="path1650" />
        <path
           class="cls-4"
           d="M181.12,714.66v-89.34c-33.55,0-60.74,20-60.74,44.67s27.19,44.67,60.74,44.67Z"
           id="path1652" />
      </g>
      <g
         id="g1660">
        <path
           class="cls-4"
           d="M360.95,443.88c0,24.67-27.19,44.67-60.74,44.67v-89.34c33.55,0,60.74,20,60.74,44.67Z"
           id="path1656" />
        <path
           class="cls-4"
           d="M300.21,488.55v89.34c-33.55,0-60.74-20-60.74-44.67s27.19-44.67,60.74-44.67Z"
           id="path1658" />
      </g>
      <g
         id="g1666">
        <path
           class="cls-4"
           d="M360.95,623.59c0,24.67-27.19,44.67-60.74,44.67v-89.34c33.55,0,60.74,20,60.74,44.67Z"
           id="path1662" />
        <path
           class="cls-4"
           d="M300.21,668.26v89.34c-33.55,0-60.74-20-60.74-44.67s27.19-44.67,60.74-44.67Z"
           id="path1664" />
      </g>
      <g
         id="g1672">
        <path
           class="cls-3"
           d="M360.95,576.64c0-24.67-27.19-44.67-60.74-44.67v89.34c33.55,0,60.74-20,60.74-44.67Z"
           id="path1668" />
        <path
           class="cls-3"
           d="M300.21,531.96v-89.34c-33.55,0-60.74,20-60.74,44.67s27.19,44.67,60.74,44.67Z"
           id="path1670" />
      </g>
      <g
         id="g1678">
        <path
           class="cls-5"
           d="M360.95,757.21c0-24.67-27.19-44.67-60.74-44.67v89.34c33.55,0,60.74-20,60.74-44.67Z"
           id="path1674" />
        <path
           class="cls-5"
           d="M300.21,712.54v-89.34c-33.55,0-60.74,20-60.74,44.67s27.19,44.67,60.74,44.67Z"
           id="path1676" />
      </g>
      <path
         class="cls-1"
         d="M533.7,172.5v6.55c-70.61,0-127.84,57.24-127.84,127.84,0,70.6,57.23,127.84,127.84,127.84v6.55c-74.23,0-134.39-60.17-134.39-134.39,0-74.22,60.17-134.39,134.39-134.39Z"
         id="path1680" />
      <g
         id="g1686">
        <path
           class="cls-4"
           d="M475.35,44.69c0,24.67-27.19,44.67-60.74,44.67V.02c33.55,0,60.74,20,60.74,44.67Z"
           id="path1682" />
        <path
           class="cls-4"
           d="M414.61,89.36v89.34c-33.55,0-60.74-20-60.74-44.67s27.19-44.67,60.74-44.67Z"
           id="path1684" />
      </g>
      <g
         id="g1692">
        <path
           class="cls-4"
           d="M475.35,224.4c0,24.67-27.19,44.67-60.74,44.67v-89.34c33.55,0,60.74,20,60.74,44.67Z"
           id="path1688" />
        <path
           class="cls-4"
           d="M414.61,269.07v89.34c-33.55,0-60.74-20-60.74-44.67s27.19-44.67,60.74-44.67Z"
           id="path1690" />
      </g>
      <g
         id="g1698">
        <path
           class="cls-3"
           d="M475.35,177.44c0-24.67-27.19-44.67-60.74-44.67v89.34c33.55,0,60.74-20,60.74-44.67Z"
           id="path1694" />
        <path
           class="cls-3"
           d="M414.61,132.77V43.43c-33.55,0-60.74,20-60.74,44.67s27.19,44.67,60.74,44.67Z"
           id="path1696" />
      </g>
      <g
         id="g1704">
        <path
           class="cls-5"
           d="M475.35,358.02c0-24.67-27.19-44.67-60.74-44.67v89.34c33.55,0,60.74-20,60.74-44.67Z"
           id="path1700" />
        <path
           class="cls-5"
           d="M414.61,313.35v-89.34c-33.55,0-60.74,20-60.74,44.67s27.19,44.67,60.74,44.67Z"
           id="path1702" />
      </g>
      <g
         id="g1710">
        <path
           class="cls-5"
           d="M594.44,42.57c0,24.67-27.19,44.67-60.74,44.67V-2.1c33.55,0,60.74,20,60.74,44.67Z"
           id="path1706" />
        <path
           class="cls-5"
           d="M533.7,87.24v89.34c-33.55,0-60.74-20-60.74-44.67s27.19-44.67,60.74-44.67Z"
           id="path1708" />
      </g>
      <g
         id="g1716">
        <path
           class="cls-2"
           d="M594.44,222.28c0,24.67-27.19,44.67-60.74,44.67v-89.34c33.55,0,60.74,20,60.74,44.67Z"
           id="path1712" />
        <path
           class="cls-2"
           d="M533.7,266.95v89.34c-33.55,0-60.74-20-60.74-44.67s27.19-44.67,60.74-44.67Z"
           id="path1714" />
      </g>
      <g
         id="g1722">
        <path
           class="cls-4"
           d="M594.44,175.32c0-24.67-27.19-44.67-60.74-44.67v89.34c33.55,0,60.74-20,60.74-44.67Z"
           id="path1718" />
        <path
           class="cls-4"
           d="M533.7,130.65V41.31c-33.55,0-60.74,20-60.74,44.67s27.19,44.67,60.74,44.67Z"
           id="path1720" />
      </g>
      <g
         id="g1728">
        <path
           class="cls-4"
           d="M594.44,355.9c0-24.67-27.19-44.67-60.74-44.67v89.34c33.55,0,60.74-20,60.74-44.67Z"
           id="path1724" />
        <path
           class="cls-4"
           d="M533.7,311.22v-89.34c-33.55,0-60.74,20-60.74,44.67s27.19,44.67,60.74,44.67Z"
           id="path1726" />
      </g>
      <g
         id="g1734">
        <path
           class="cls-4"
           d="M713.53,40.44c0,24.67-27.19,44.67-60.74,44.67V-4.23c33.55,0,60.74,20,60.74,44.67Z"
           id="path1730" />
        <path
           class="cls-4"
           d="M652.79,85.12v89.34c-33.55,0-60.74-20-60.74-44.67s27.19-44.67,60.74-44.67Z"
           id="path1732" />
      </g>
      <g
         id="g1740">
        <path
           class="cls-4"
           d="M713.53,220.15c0,24.67-27.19,44.67-60.74,44.67v-89.34c33.55,0,60.74,20,60.74,44.67Z"
           id="path1736" />
        <path
           class="cls-4"
           d="M652.79,264.82v89.34c-33.55,0-60.74-20-60.74-44.67s27.19-44.67,60.74-44.67Z"
           id="path1738" />
      </g>
      <g
         id="g1746">
        <path
           class="cls-3"
           d="M713.53,173.2c0-24.67-27.19-44.67-60.74-44.67v89.34c33.55,0,60.74-20,60.74-44.67Z"
           id="path1742" />
        <path
           class="cls-3"
           d="M652.79,128.53V39.19c-33.55,0-60.74,20-60.74,44.67s27.19,44.67,60.74,44.67Z"
           id="path1744" />
      </g>
      <g
         id="g1752">
        <path
           class="cls-5"
           d="M713.53,353.77c0-24.67-27.19-44.67-60.74-44.67v89.34c33.55,0,60.74-20,60.74-44.67Z"
           id="path1748" />
        <path
           class="cls-5"
           d="M652.79,309.1v-89.34c-33.55,0-60.74,20-60.74,44.67s27.19,44.67,60.74,44.67Z"
           id="path1750" />
      </g>
      <g
         id="g1758">
        <path
           class="cls-4"
           d="M475.35,448.13c0,24.67-27.19,44.67-60.74,44.67v-89.34c33.55,0,60.74,20,60.74,44.67Z"
           id="path1754" />
        <path
           class="cls-4"
           d="M414.61,492.8v89.34c-33.55,0-60.74-20-60.74-44.67s27.19-44.67,60.74-44.67Z"
           id="path1756" />
      </g>
      <g
         id="g1764">
        <path
           class="cls-4"
           d="M475.35,627.84c0,24.67-27.19,44.67-60.74,44.67v-89.34c33.55,0,60.74,20,60.74,44.67Z"
           id="path1760" />
        <path
           class="cls-4"
           d="M414.61,672.51v89.34c-33.55,0-60.74-20-60.74-44.67s27.19-44.67,60.74-44.67Z"
           id="path1762" />
      </g>
      <g
         id="g1770">
        <path
           class="cls-3"
           d="M475.35,580.88c0-24.67-27.19-44.67-60.74-44.67v89.34c33.55,0,60.74-20,60.74-44.67Z"
           id="path1766" />
        <path
           class="cls-3"
           d="M414.61,536.21v-89.34c-33.55,0-60.74,20-60.74,44.67s27.19,44.67,60.74,44.67Z"
           id="path1768" />
      </g>
      <g
         id="g1776">
        <path
           class="cls-5"
           d="M475.35,761.46c0-24.67-27.19-44.67-60.74-44.67v89.34c33.55,0,60.74-20,60.74-44.67Z"
           id="path1772" />
        <path
           class="cls-5"
           d="M414.61,716.79v-89.34c-33.55,0-60.74,20-60.74,44.67s27.19,44.67,60.74,44.67Z"
           id="path1774" />
      </g>
      <g
         id="g1782">
        <path
           class="cls-5"
           d="M594.44,446.01c0,24.67-27.19,44.67-60.74,44.67v-89.34c33.55,0,60.74,20,60.74,44.67Z"
           id="path1778" />
        <path
           class="cls-5"
           d="M533.7,490.68v89.34c-33.55,0-60.74-20-60.74-44.67s27.19-44.67,60.74-44.67Z"
           id="path1780" />
      </g>
      <g
         id="g1788">
        <path
           class="cls-2"
           d="M594.44,625.71c0,24.67-27.19,44.67-60.74,44.67v-89.34c33.55,0,60.74,20,60.74,44.67Z"
           id="path1784" />
        <path
           class="cls-2"
           d="M533.7,670.39v89.34c-33.55,0-60.74-20-60.74-44.67s27.19-44.67,60.74-44.67Z"
           id="path1786" />
      </g>
      <g
         id="g1794">
        <path
           class="cls-4"
           d="M594.44,578.76c0-24.67-27.19-44.67-60.74-44.67v89.34c33.55,0,60.74-20,60.74-44.67Z"
           id="path1790" />
        <path
           class="cls-4"
           d="M533.7,534.09v-89.34c-33.55,0-60.74,20-60.74,44.67s27.19,44.67,60.74,44.67Z"
           id="path1792" />
      </g>
      <g
         id="g1800">
        <path
           class="cls-4"
           d="M594.44,759.34c0-24.67-27.19-44.67-60.74-44.67v89.34c33.55,0,60.74-20,60.74-44.67Z"
           id="path1796" />
        <path
           class="cls-4"
           d="M533.7,714.66v-89.34c-33.55,0-60.74,20-60.74,44.67s27.19,44.67,60.74,44.67Z"
           id="path1798" />
      </g>
      <g
         id="g1806">
        <path
           class="cls-4"
           d="M713.53,443.88c0,24.67-27.19,44.67-60.74,44.67v-89.34c33.55,0,60.74,20,60.74,44.67Z"
           id="path1802" />
        <path
           class="cls-4"
           d="M652.79,488.55v89.34c-33.55,0-60.74-20-60.74-44.67s27.19-44.67,60.74-44.67Z"
           id="path1804" />
      </g>
      <g
         id="g1812">
        <path
           class="cls-4"
           d="M713.53,623.59c0,24.67-27.19,44.67-60.74,44.67v-89.34c33.55,0,60.74,20,60.74,44.67Z"
           id="path1808" />
        <path
           class="cls-4"
           d="M652.79,668.26v89.34c-33.55,0-60.74-20-60.74-44.67s27.19-44.67,60.74-44.67Z"
           id="path1810" />
      </g>
      <g
         id="g1818">
        <path
           class="cls-3"
           d="M713.53,576.64c0-24.67-27.19-44.67-60.74-44.67v89.34c33.55,0,60.74-20,60.74-44.67Z"
           id="path1814" />
        <path
           class="cls-3"
           d="M652.79,531.96v-89.34c-33.55,0-60.74,20-60.74,44.67s27.19,44.67,60.74,44.67Z"
           id="path1816" />
      </g>
      <g
         id="g1824">
        <path
           class="cls-5"
           d="M713.53,757.21c0-24.67-27.19-44.67-60.74-44.67v89.34c33.55,0,60.74-20,60.74-44.67Z"
           id="path1820" />
        <path
           class="cls-5"
           d="M652.79,712.54v-89.34c-33.55,0-60.74,20-60.74,44.67s27.19,44.67,60.74,44.67Z"
           id="path1822" />
      </g>
      <path
         class="cls-7"
         d="M837.17-89.7v6.55c70.61,0,127.84,57.24,127.84,127.84s-57.23,127.84-127.84,127.84v6.55c74.23,0,134.39-60.17,134.39-134.39s-60.17-134.39-134.39-134.39Z"
         id="path1826" />
      <g
         id="g1832">
        <path
           class="cls-4"
           d="M778.82,44.69c0,24.67-27.19,44.67-60.74,44.67V.02c33.55,0,60.74,20,60.74,44.67Z"
           id="path1828" />
        <path
           class="cls-4"
           d="M718.08,89.36v89.34c-33.55,0-60.74-20-60.74-44.67s27.19-44.67,60.74-44.67Z"
           id="path1830" />
      </g>
      <g
         id="g1838">
        <path
           class="cls-4"
           d="M778.82,224.4c0,24.67-27.19,44.67-60.74,44.67v-89.34c33.55,0,60.74,20,60.74,44.67Z"
           id="path1834" />
        <path
           class="cls-4"
           d="M718.08,269.07v89.34c-33.55,0-60.74-20-60.74-44.67s27.19-44.67,60.74-44.67Z"
           id="path1836" />
      </g>
      <g
         id="g1844">
        <path
           class="cls-3"
           d="M778.82,177.44c0-24.67-27.19-44.67-60.74-44.67v89.34c33.55,0,60.74-20,60.74-44.67Z"
           id="path1840" />
        <path
           class="cls-3"
           d="M718.08,132.77V43.43c-33.55,0-60.74,20-60.74,44.67s27.19,44.67,60.74,44.67Z"
           id="path1842" />
      </g>
      <g
         id="g1850">
        <path
           class="cls-5"
           d="M778.82,358.02c0-24.67-27.19-44.67-60.74-44.67v89.34c33.55,0,60.74-20,60.74-44.67Z"
           id="path1846" />
        <path
           class="cls-5"
           d="M718.08,313.35v-89.34c-33.55,0-60.74,20-60.74,44.67s27.19,44.67,60.74,44.67Z"
           id="path1848" />
      </g>
      <g
         id="g1856">
        <path
           class="cls-5"
           d="M897.91,42.57c0,24.67-27.19,44.67-60.74,44.67V-2.1c33.55,0,60.74,20,60.74,44.67Z"
           id="path1852" />
        <path
           class="cls-5"
           d="M837.17,87.24v89.34c-33.55,0-60.74-20-60.74-44.67s27.19-44.67,60.74-44.67Z"
           id="path1854" />
      </g>
      <g
         id="g1862">
        <path
           class="cls-2"
           d="M897.91,222.28c0,24.67-27.19,44.67-60.74,44.67v-89.34c33.55,0,60.74,20,60.74,44.67Z"
           id="path1858" />
        <path
           class="cls-2"
           d="M837.17,266.95v89.34c-33.55,0-60.74-20-60.74-44.67s27.19-44.67,60.74-44.67Z"
           id="path1860" />
      </g>
      <g
         id="g1868">
        <path
           class="cls-4"
           d="M897.91,175.32c0-24.67-27.19-44.67-60.74-44.67v89.34c33.55,0,60.74-20,60.74-44.67Z"
           id="path1864" />
        <path
           class="cls-4"
           d="M837.17,130.65V41.31c-33.55,0-60.74,20-60.74,44.67s27.19,44.67,60.74,44.67Z"
           id="path1866" />
      </g>
      <g
         id="g1874">
        <path
           class="cls-4"
           d="M897.91,355.9c0-24.67-27.19-44.67-60.74-44.67v89.34c33.55,0,60.74-20,60.74-44.67Z"
           id="path1870" />
        <path
           class="cls-4"
           d="M837.17,311.22v-89.34c-33.55,0-60.74,20-60.74,44.67s27.19,44.67,60.74,44.67Z"
           id="path1872" />
      </g>
      <g
         id="g1880">
        <path
           class="cls-4"
           d="M1017,40.44c0,24.67-27.19,44.67-60.74,44.67V-4.23c33.55,0,60.74,20,60.74,44.67Z"
           id="path1876" />
        <path
           class="cls-4"
           d="M956.26,85.12v89.34c-33.55,0-60.74-20-60.74-44.67s27.19-44.67,60.74-44.67Z"
           id="path1878" />
      </g>
      <g
         id="g1886">
        <path
           class="cls-4"
           d="M1017,220.15c0,24.67-27.19,44.67-60.74,44.67v-89.34c33.55,0,60.74,20,60.74,44.67Z"
           id="path1882" />
        <path
           class="cls-4"
           d="M956.26,264.82v89.34c-33.55,0-60.74-20-60.74-44.67s27.19-44.67,60.74-44.67Z"
           id="path1884" />
      </g>
      <g
         id="g1892">
        <path
           class="cls-3"
           d="M1017,173.2c0-24.67-27.19-44.67-60.74-44.67v89.34c33.55,0,60.74-20,60.74-44.67Z"
           id="path1888" />
        <path
           class="cls-3"
           d="M956.26,128.53V39.19c-33.55,0-60.74,20-60.74,44.67s27.19,44.67,60.74,44.67Z"
           id="path1890" />
      </g>
      <g
         id="g1898">
        <path
           class="cls-5"
           d="M1017,353.77c0-24.67-27.19-44.67-60.74-44.67v89.34c33.55,0,60.74-20,60.74-44.67Z"
           id="path1894" />
        <path
           class="cls-5"
           d="M956.26,309.1v-89.34c-33.55,0-60.74,20-60.74,44.67s27.19,44.67,60.74,44.67Z"
           id="path1896" />
      </g>
      <path
         class="cls-1"
         d="M837.17,575.94v6.55c-70.61,0-127.84,57.24-127.84,127.84s57.23,127.84,127.84,127.84v6.55c-74.23,0-134.39-60.17-134.39-134.39,0-74.22,60.17-134.39,134.39-134.39Z"
         id="path1900" />
      <g
         id="g1906">
        <path
           class="cls-4"
           d="M778.82,448.13c0,24.67-27.19,44.67-60.74,44.67v-89.34c33.55,0,60.74,20,60.74,44.67Z"
           id="path1902" />
        <path
           class="cls-4"
           d="M718.08,492.8v89.34c-33.55,0-60.74-20-60.74-44.67s27.19-44.67,60.74-44.67Z"
           id="path1904" />
      </g>
      <g
         id="g1912">
        <path
           class="cls-4"
           d="M778.82,627.84c0,24.67-27.19,44.67-60.74,44.67v-89.34c33.55,0,60.74,20,60.74,44.67Z"
           id="path1908" />
        <path
           class="cls-4"
           d="M718.08,672.51v89.34c-33.55,0-60.74-20-60.74-44.67s27.19-44.67,60.74-44.67Z"
           id="path1910" />
      </g>
      <g
         id="g1918">
        <path
           class="cls-3"
           d="M778.82,580.88c0-24.67-27.19-44.67-60.74-44.67v89.34c33.55,0,60.74-20,60.74-44.67Z"
           id="path1914" />
        <path
           class="cls-3"
           d="M718.08,536.21v-89.34c-33.55,0-60.74,20-60.74,44.67s27.19,44.67,60.74,44.67Z"
           id="path1916" />
      </g>
      <g
         id="g1924">
        <path
           class="cls-5"
           d="M778.82,761.46c0-24.67-27.19-44.67-60.74-44.67v89.34c33.55,0,60.74-20,60.74-44.67Z"
           id="path1920" />
        <path
           class="cls-5"
           d="M718.08,716.79v-89.34c-33.55,0-60.74,20-60.74,44.67s27.19,44.67,60.74,44.67Z"
           id="path1922" />
      </g>
      <g
         id="g1930">
        <path
           class="cls-5"
           d="M897.91,446.01c0,24.67-27.19,44.67-60.74,44.67v-89.34c33.55,0,60.74,20,60.74,44.67Z"
           id="path1926" />
        <path
           class="cls-5"
           d="M837.17,490.68v89.34c-33.55,0-60.74-20-60.74-44.67s27.19-44.67,60.74-44.67Z"
           id="path1928" />
      </g>
      <g
         id="g1936">
        <path
           class="cls-2"
           d="M897.91,625.71c0,24.67-27.19,44.67-60.74,44.67v-89.34c33.55,0,60.74,20,60.74,44.67Z"
           id="path1932" />
        <path
           class="cls-2"
           d="M837.17,670.39v89.34c-33.55,0-60.74-20-60.74-44.67s27.19-44.67,60.74-44.67Z"
           id="path1934" />
      </g>
      <g
         id="g1942">
        <path
           class="cls-4"
           d="M897.91,578.76c0-24.67-27.19-44.67-60.74-44.67v89.34c33.55,0,60.74-20,60.74-44.67Z"
           id="path1938" />
        <path
           class="cls-4"
           d="M837.17,534.09v-89.34c-33.55,0-60.74,20-60.74,44.67s27.19,44.67,60.74,44.67Z"
           id="path1940" />
      </g>
      <g
         id="g1948">
        <path
           class="cls-4"
           d="M897.91,759.34c0-24.67-27.19-44.67-60.74-44.67v89.34c33.55,0,60.74-20,60.74-44.67Z"
           id="path1944" />
        <path
           class="cls-4"
           d="M837.17,714.66v-89.34c-33.55,0-60.74,20-60.74,44.67s27.19,44.67,60.74,44.67Z"
           id="path1946" />
      </g>
      <g
         id="g1954">
        <path
           class="cls-4"
           d="M1017,443.88c0,24.67-27.19,44.67-60.74,44.67v-89.34c33.55,0,60.74,20,60.74,44.67Z"
           id="path1950" />
        <path
           class="cls-4"
           d="M956.26,488.55v89.34c-33.55,0-60.74-20-60.74-44.67s27.19-44.67,60.74-44.67Z"
           id="path1952" />
      </g>
      <g
         id="g1960">
        <path
           class="cls-4"
           d="M1017,623.59c0,24.67-27.19,44.67-60.74,44.67v-89.34c33.55,0,60.74,20,60.74,44.67Z"
           id="path1956" />
        <path
           class="cls-4"
           d="M956.26,668.26v89.34c-33.55,0-60.74-20-60.74-44.67s27.19-44.67,60.74-44.67Z"
           id="path1958" />
      </g>
      <g
         id="g1966">
        <path
           class="cls-3"
           d="M1017,576.64c0-24.67-27.19-44.67-60.74-44.67v89.34c33.55,0,60.74-20,60.74-44.67Z"
           id="path1962" />
        <path
           class="cls-3"
           d="M956.26,531.96v-89.34c-33.55,0-60.74,20-60.74,44.67s27.19,44.67,60.74,44.67Z"
           id="path1964" />
      </g>
      <g
         id="g1972">
        <path
           class="cls-5"
           d="M1017,757.21c0-24.67-27.19-44.67-60.74-44.67v89.34c33.55,0,60.74-20,60.74-44.67Z"
           id="path1968" />
        <path
           class="cls-5"
           d="M956.26,712.54v-89.34c-33.55,0-60.74,20-60.74,44.67s27.19,44.67,60.74,44.67Z"
           id="path1970" />
      </g>
      <path
         class="cls-1"
         d="M1189.76,172.5v6.55c-70.61,0-127.84,57.24-127.84,127.84s57.23,127.84,127.84,127.84v6.55c-74.23,0-134.39-60.17-134.39-134.39,0-74.22,60.17-134.39,134.39-134.39Z"
         id="path1974" />
      <g
         id="g1980">
        <path
           class="cls-4"
           d="M1131.41,44.69c0,24.67-27.19,44.67-60.74,44.67V.02c33.55,0,60.74,20,60.74,44.67Z"
           id="path1976" />
        <path
           class="cls-4"
           d="M1070.67,89.36v89.34c-33.55,0-60.74-20-60.74-44.67s27.19-44.67,60.74-44.67Z"
           id="path1978" />
      </g>
      <g
         id="g1986">
        <path
           class="cls-4"
           d="M1131.41,224.4c0,24.67-27.19,44.67-60.74,44.67v-89.34c33.55,0,60.74,20,60.74,44.67Z"
           id="path1982" />
        <path
           class="cls-4"
           d="M1070.67,269.07v89.34c-33.55,0-60.74-20-60.74-44.67s27.19-44.67,60.74-44.67Z"
           id="path1984" />
      </g>
      <g
         id="g1992">
        <path
           class="cls-3"
           d="M1131.41,177.44c0-24.67-27.19-44.67-60.74-44.67v89.34c33.55,0,60.74-20,60.74-44.67Z"
           id="path1988" />
        <path
           class="cls-3"
           d="M1070.67,132.77V43.43c-33.55,0-60.74,20-60.74,44.67s27.19,44.67,60.74,44.67Z"
           id="path1990" />
      </g>
      <g
         id="g1998">
        <path
           class="cls-5"
           d="M1131.41,358.02c0-24.67-27.19-44.67-60.74-44.67v89.34c33.55,0,60.74-20,60.74-44.67Z"
           id="path1994" />
        <path
           class="cls-5"
           d="M1070.67,313.35v-89.34c-33.55,0-60.74,20-60.74,44.67s27.19,44.67,60.74,44.67Z"
           id="path1996" />
      </g>
      <path
         class="cls-1"
         d="M1189.76,575.94v6.55c-70.61,0-127.84,57.24-127.84,127.84s57.23,127.84,127.84,127.84v6.55c-74.23,0-134.39-60.17-134.39-134.39,0-74.22,60.17-134.39,134.39-134.39Z"
         id="path2000" />
      <g
         id="g2006">
        <path
           class="cls-4"
           d="M1131.41,448.13c0,24.67-27.19,44.67-60.74,44.67v-89.34c33.55,0,60.74,20,60.74,44.67Z"
           id="path2002" />
        <path
           class="cls-4"
           d="M1070.67,492.8v89.34c-33.55,0-60.74-20-60.74-44.67s27.19-44.67,60.74-44.67Z"
           id="path2004" />
      </g>
      <g
         id="g2012">
        <path
           class="cls-4"
           d="M1131.41,627.84c0,24.67-27.19,44.67-60.74,44.67v-89.34c33.55,0,60.74,20,60.74,44.67Z"
           id="path2008" />
        <path
           class="cls-4"
           d="M1070.67,672.51v89.34c-33.55,0-60.74-20-60.74-44.67s27.19-44.67,60.74-44.67Z"
           id="path2010" />
      </g>
      <g
         id="g2018">
        <path
           class="cls-3"
           d="M1131.41,580.88c0-24.67-27.19-44.67-60.74-44.67v89.34c33.55,0,60.74-20,60.74-44.67Z"
           id="path2014" />
        <path
           class="cls-3"
           d="M1070.67,536.21v-89.34c-33.55,0-60.74,20-60.74,44.67s27.19,44.67,60.74,44.67Z"
           id="path2016" />
      </g>
      <g
         id="g2024">
        <path
           class="cls-5"
           d="M1131.41,761.46c0-24.67-27.19-44.67-60.74-44.67v89.34c33.55,0,60.74-20,60.74-44.67Z"
           id="path2020" />
        <path
           class="cls-5"
           d="M1070.67,716.79v-89.34c-33.55,0-60.74,20-60.74,44.67s27.19,44.67,60.74,44.67Z"
           id="path2022" />
      </g>
      <g
         id="g2030">
        <path
           class="cls-4"
           d="M122.76,808.37c0,24.67-27.19,44.67-60.74,44.67v-89.34c33.55,0,60.74,20,60.74,44.67Z"
           id="path2026" />
        <path
           class="cls-4"
           d="M62.03,853.04v89.34c-33.55,0-60.74-20-60.74-44.67s27.19-44.67,60.74-44.67Z"
           id="path2028" />
      </g>
      <g
         id="g2036">
        <path
           class="cls-4"
           d="M122.76,988.08c0,24.67-27.19,44.67-60.74,44.67v-89.34c33.55,0,60.74,20,60.74,44.67Z"
           id="path2032" />
        <path
           class="cls-4"
           d="M62.03,1032.75v89.34c-33.55,0-60.74-20-60.74-44.67s27.19-44.67,60.74-44.67Z"
           id="path2034" />
      </g>
      <g
         id="g2042">
        <path
           class="cls-3"
           d="M122.76,941.12c0-24.67-27.19-44.67-60.74-44.67v89.34c33.55,0,60.74-20,60.74-44.67Z"
           id="path2038" />
        <path
           class="cls-3"
           d="M62.03,896.45v-89.34c-33.55,0-60.74,20-60.74,44.67s27.19,44.67,60.74,44.67Z"
           id="path2040" />
      </g>
      <g
         id="g2048">
        <path
           class="cls-5"
           d="M122.76,1121.7c0-24.67-27.19-44.67-60.74-44.67v89.34c33.55,0,60.74-20,60.74-44.67Z"
           id="path2044" />
        <path
           class="cls-5"
           d="M62.03,1077.03v-89.34c-33.55,0-60.74,20-60.74,44.67s27.19,44.67,60.74,44.67Z"
           id="path2046" />
      </g>
      <g
         id="g2054">
        <path
           class="cls-5"
           d="M241.86,806.24c0,24.67-27.19,44.67-60.74,44.67v-89.34c33.55,0,60.74,20,60.74,44.67Z"
           id="path2050" />
        <path
           class="cls-5"
           d="M181.12,850.92v89.34c-33.55,0-60.74-20-60.74-44.67s27.19-44.67,60.74-44.67Z"
           id="path2052" />
      </g>
      <g
         id="g2060">
        <path
           class="cls-2"
           d="M241.86,985.95c0,24.67-27.19,44.67-60.74,44.67v-89.34c33.55,0,60.74,20,60.74,44.67Z"
           id="path2056" />
        <path
           class="cls-2"
           d="M181.12,1030.63v89.34c-33.55,0-60.74-20-60.74-44.67s27.19-44.67,60.74-44.67Z"
           id="path2058" />
      </g>
      <g
         id="g2066">
        <path
           class="cls-4"
           d="M241.86,939c0-24.67-27.19-44.67-60.74-44.67v89.34c33.55,0,60.74-20,60.74-44.67Z"
           id="path2062" />
        <path
           class="cls-4"
           d="M181.12,894.33v-89.34c-33.55,0-60.74,20-60.74,44.67s27.19,44.67,60.74,44.67Z"
           id="path2064" />
      </g>
      <g
         id="g2072">
        <path
           class="cls-4"
           d="M241.86,1119.58c0-24.67-27.19-44.67-60.74-44.67v89.34c33.55,0,60.74-20,60.74-44.67Z"
           id="path2068" />
        <path
           class="cls-4"
           d="M181.12,1074.9v-89.34c-33.55,0-60.74,20-60.74,44.67s27.19,44.67,60.74,44.67Z"
           id="path2070" />
      </g>
      <g
         id="g2078">
        <path
           class="cls-4"
           d="M360.95,804.12c0,24.67-27.19,44.67-60.74,44.67v-89.34c33.55,0,60.74,20,60.74,44.67Z"
           id="path2074" />
        <path
           class="cls-4"
           d="M300.21,848.79v89.34c-33.55,0-60.74-20-60.74-44.67s27.19-44.67,60.74-44.67Z"
           id="path2076" />
      </g>
      <g
         id="g2084">
        <path
           class="cls-4"
           d="M360.95,983.83c0,24.67-27.19,44.67-60.74,44.67v-89.34c33.55,0,60.74,20,60.74,44.67Z"
           id="path2080" />
        <path
           class="cls-4"
           d="M300.21,1028.5v89.34c-33.55,0-60.74-20-60.74-44.67s27.19-44.67,60.74-44.67Z"
           id="path2082" />
      </g>
      <g
         id="g2090">
        <path
           class="cls-3"
           d="M360.95,936.88c0-24.67-27.19-44.67-60.74-44.67v89.34c33.55,0,60.74-20,60.74-44.67Z"
           id="path2086" />
        <path
           class="cls-3"
           d="M300.21,892.2v-89.34c-33.55,0-60.74,20-60.74,44.67s27.19,44.67,60.74,44.67Z"
           id="path2088" />
      </g>
      <g
         id="g2096">
        <path
           class="cls-5"
           d="M360.95,1117.45c0-24.67-27.19-44.67-60.74-44.67v89.34c33.55,0,60.74-20,60.74-44.67Z"
           id="path2092" />
        <path
           class="cls-5"
           d="M300.21,1072.78v-89.34c-33.55,0-60.74,20-60.74,44.67s27.19,44.67,60.74,44.67Z"
           id="path2094" />
      </g>
      <path
         class="cls-7"
         d="M181.12,1077.42v6.55c70.61,0,127.84,57.24,127.84,127.84s-57.23,127.84-127.84,127.84v6.55c74.23,0,134.39-60.17,134.39-134.39s-60.17-134.39-134.39-134.39Z"
         id="path2098" />
      <path
         class="cls-7"
         d="M533.7,673.98v6.55c70.61,0,127.84,57.24,127.84,127.84s-57.23,127.84-127.84,127.84v6.55c74.23,0,134.39-60.17,134.39-134.39s-60.17-134.39-134.39-134.39Z"
         id="path2100" />
      <path
         class="cls-1"
         d="M533.7,936.17v6.55c-70.61,0-127.84,57.24-127.84,127.84,0,70.6,57.23,127.84,127.84,127.84v6.55c-74.23,0-134.39-60.17-134.39-134.39,0-74.22,60.17-134.39,134.39-134.39Z"
         id="path2102" />
      <g
         id="g2108">
        <path
           class="cls-4"
           d="M475.35,808.37c0,24.67-27.19,44.67-60.74,44.67v-89.34c33.55,0,60.74,20,60.74,44.67Z"
           id="path2104" />
        <path
           class="cls-4"
           d="M414.61,853.04v89.34c-33.55,0-60.74-20-60.74-44.67s27.19-44.67,60.74-44.67Z"
           id="path2106" />
      </g>
      <g
         id="g2114">
        <path
           class="cls-4"
           d="M475.35,988.08c0,24.67-27.19,44.67-60.74,44.67v-89.34c33.55,0,60.74,20,60.74,44.67Z"
           id="path2110" />
        <path
           class="cls-4"
           d="M414.61,1032.75v89.34c-33.55,0-60.74-20-60.74-44.67s27.19-44.67,60.74-44.67Z"
           id="path2112" />
      </g>
      <g
         id="g2120">
        <path
           class="cls-3"
           d="M475.35,941.12c0-24.67-27.19-44.67-60.74-44.67v89.34c33.55,0,60.74-20,60.74-44.67Z"
           id="path2116" />
        <path
           class="cls-3"
           d="M414.61,896.45v-89.34c-33.55,0-60.74,20-60.74,44.67s27.19,44.67,60.74,44.67Z"
           id="path2118" />
      </g>
      <g
         id="g2126">
        <path
           class="cls-5"
           d="M475.35,1121.7c0-24.67-27.19-44.67-60.74-44.67v89.34c33.55,0,60.74-20,60.74-44.67Z"
           id="path2122" />
        <path
           class="cls-5"
           d="M414.61,1077.03v-89.34c-33.55,0-60.74,20-60.74,44.67s27.19,44.67,60.74,44.67Z"
           id="path2124" />
      </g>
      <g
         id="g2132">
        <path
           class="cls-5"
           d="M594.44,806.24c0,24.67-27.19,44.67-60.74,44.67v-89.34c33.55,0,60.74,20,60.74,44.67Z"
           id="path2128" />
        <path
           class="cls-5"
           d="M533.7,850.92v89.34c-33.55,0-60.74-20-60.74-44.67s27.19-44.67,60.74-44.67Z"
           id="path2130" />
      </g>
      <g
         id="g2138">
        <path
           class="cls-2"
           d="M594.44,985.95c0,24.67-27.19,44.67-60.74,44.67v-89.34c33.55,0,60.74,20,60.74,44.67Z"
           id="path2134" />
        <path
           class="cls-2"
           d="M533.7,1030.63v89.34c-33.55,0-60.74-20-60.74-44.67s27.19-44.67,60.74-44.67Z"
           id="path2136" />
      </g>
      <g
         id="g2144">
        <path
           class="cls-4"
           d="M594.44,939c0-24.67-27.19-44.67-60.74-44.67v89.34c33.55,0,60.74-20,60.74-44.67Z"
           id="path2140" />
        <path
           class="cls-4"
           d="M533.7,894.33v-89.34c-33.55,0-60.74,20-60.74,44.67s27.19,44.67,60.74,44.67Z"
           id="path2142" />
      </g>
      <g
         id="g2150">
        <path
           class="cls-4"
           d="M594.44,1119.58c0-24.67-27.19-44.67-60.74-44.67v89.34c33.55,0,60.74-20,60.74-44.67Z"
           id="path2146" />
        <path
           class="cls-4"
           d="M533.7,1074.9v-89.34c-33.55,0-60.74,20-60.74,44.67s27.19,44.67,60.74,44.67Z"
           id="path2148" />
      </g>
      <g
         id="g2156">
        <path
           class="cls-4"
           d="M713.53,804.12c0,24.67-27.19,44.67-60.74,44.67v-89.34c33.55,0,60.74,20,60.74,44.67Z"
           id="path2152" />
        <path
           class="cls-4"
           d="M652.79,848.79v89.34c-33.55,0-60.74-20-60.74-44.67s27.19-44.67,60.74-44.67Z"
           id="path2154" />
      </g>
      <g
         id="g2162">
        <path
           class="cls-4"
           d="M713.53,983.83c0,24.67-27.19,44.67-60.74,44.67v-89.34c33.55,0,60.74,20,60.74,44.67Z"
           id="path2158" />
        <path
           class="cls-4"
           d="M652.79,1028.5v89.34c-33.55,0-60.74-20-60.74-44.67s27.19-44.67,60.74-44.67Z"
           id="path2160" />
      </g>
      <g
         id="g2168">
        <path
           class="cls-3"
           d="M713.53,936.88c0-24.67-27.19-44.67-60.74-44.67v89.34c33.55,0,60.74-20,60.74-44.67Z"
           id="path2164" />
        <path
           class="cls-3"
           d="M652.79,892.2v-89.34c-33.55,0-60.74,20-60.74,44.67s27.19,44.67,60.74,44.67Z"
           id="path2166" />
      </g>
      <g
         id="g2174">
        <path
           class="cls-5"
           d="M713.53,1117.45c0-24.67-27.19-44.67-60.74-44.67v89.34c33.55,0,60.74-20,60.74-44.67Z"
           id="path2170" />
        <path
           class="cls-5"
           d="M652.79,1072.78v-89.34c-33.55,0-60.74,20-60.74,44.67s27.19,44.67,60.74,44.67Z"
           id="path2172" />
      </g>
      <path
         class="cls-7"
         d="M533.7,1077.42v6.55c70.61,0,127.84,57.24,127.84,127.84s-57.23,127.84-127.84,127.84v6.55c74.23,0,134.39-60.17,134.39-134.39s-60.17-134.39-134.39-134.39Z"
         id="path2176" />
      <path
         class="cls-1"
         d="M837.17,936.17v6.55c-70.61,0-127.84,57.24-127.84,127.84s57.23,127.84,127.84,127.84v6.55c-74.23,0-134.39-60.17-134.39-134.39,0-74.22,60.17-134.39,134.39-134.39Z"
         id="path2178" />
      <g
         id="g2184">
        <path
           class="cls-4"
           d="M778.82,808.37c0,24.67-27.19,44.67-60.74,44.67v-89.34c33.55,0,60.74,20,60.74,44.67Z"
           id="path2180" />
        <path
           class="cls-4"
           d="M718.08,853.04v89.34c-33.55,0-60.74-20-60.74-44.67s27.19-44.67,60.74-44.67Z"
           id="path2182" />
      </g>
      <g
         id="g2190">
        <path
           class="cls-4"
           d="M778.82,988.08c0,24.67-27.19,44.67-60.74,44.67v-89.34c33.55,0,60.74,20,60.74,44.67Z"
           id="path2186" />
        <path
           class="cls-4"
           d="M718.08,1032.75v89.34c-33.55,0-60.74-20-60.74-44.67s27.19-44.67,60.74-44.67Z"
           id="path2188" />
      </g>
      <g
         id="g2196">
        <path
           class="cls-3"
           d="M778.82,941.12c0-24.67-27.19-44.67-60.74-44.67v89.34c33.55,0,60.74-20,60.74-44.67Z"
           id="path2192" />
        <path
           class="cls-3"
           d="M718.08,896.45v-89.34c-33.55,0-60.74,20-60.74,44.67s27.19,44.67,60.74,44.67Z"
           id="path2194" />
      </g>
      <g
         id="g2202">
        <path
           class="cls-5"
           d="M778.82,1121.7c0-24.67-27.19-44.67-60.74-44.67v89.34c33.55,0,60.74-20,60.74-44.67Z"
           id="path2198" />
        <path
           class="cls-5"
           d="M718.08,1077.03v-89.34c-33.55,0-60.74,20-60.74,44.67s27.19,44.67,60.74,44.67Z"
           id="path2200" />
      </g>
      <g
         id="g2208">
        <path
           class="cls-5"
           d="M897.91,806.24c0,24.67-27.19,44.67-60.74,44.67v-89.34c33.55,0,60.74,20,60.74,44.67Z"
           id="path2204" />
        <path
           class="cls-5"
           d="M837.17,850.92v89.34c-33.55,0-60.74-20-60.74-44.67s27.19-44.67,60.74-44.67Z"
           id="path2206" />
      </g>
      <g
         id="g2214">
        <path
           class="cls-2"
           d="M897.91,985.95c0,24.67-27.19,44.67-60.74,44.67v-89.34c33.55,0,60.74,20,60.74,44.67Z"
           id="path2210" />
        <path
           class="cls-2"
           d="M837.17,1030.63v89.34c-33.55,0-60.74-20-60.74-44.67s27.19-44.67,60.74-44.67Z"
           id="path2212" />
      </g>
      <g
         id="g2220">
        <path
           class="cls-4"
           d="M897.91,939c0-24.67-27.19-44.67-60.74-44.67v89.34c33.55,0,60.74-20,60.74-44.67Z"
           id="path2216" />
        <path
           class="cls-4"
           d="M837.17,894.33v-89.34c-33.55,0-60.74,20-60.74,44.67s27.19,44.67,60.74,44.67Z"
           id="path2218" />
      </g>
      <g
         id="g2226">
        <path
           class="cls-4"
           d="M897.91,1119.58c0-24.67-27.19-44.67-60.74-44.67v89.34c33.55,0,60.74-20,60.74-44.67Z"
           id="path2222" />
        <path
           class="cls-4"
           d="M837.17,1074.9v-89.34c-33.55,0-60.74,20-60.74,44.67s27.19,44.67,60.74,44.67Z"
           id="path2224" />
      </g>
      <g
         id="g2232">
        <path
           class="cls-4"
           d="M1017,804.12c0,24.67-27.19,44.67-60.74,44.67v-89.34c33.55,0,60.74,20,60.74,44.67Z"
           id="path2228" />
        <path
           class="cls-4"
           d="M956.26,848.79v89.34c-33.55,0-60.74-20-60.74-44.67s27.19-44.67,60.74-44.67Z"
           id="path2230" />
      </g>
      <g
         id="g2238">
        <path
           class="cls-4"
           d="M1017,983.83c0,24.67-27.19,44.67-60.74,44.67v-89.34c33.55,0,60.74,20,60.74,44.67Z"
           id="path2234" />
        <path
           class="cls-4"
           d="M956.26,1028.5v89.34c-33.55,0-60.74-20-60.74-44.67s27.19-44.67,60.74-44.67Z"
           id="path2236" />
      </g>
      <g
         id="g2244">
        <path
           class="cls-3"
           d="M1017,936.88c0-24.67-27.19-44.67-60.74-44.67v89.34c33.55,0,60.74-20,60.74-44.67Z"
           id="path2240" />
        <path
           class="cls-3"
           d="M956.26,892.2v-89.34c-33.55,0-60.74,20-60.74,44.67s27.19,44.67,60.74,44.67Z"
           id="path2242" />
      </g>
      <g
         id="g2250">
        <path
           class="cls-5"
           d="M1017,1117.45c0-24.67-27.19-44.67-60.74-44.67v89.34c33.55,0,60.74-20,60.74-44.67Z"
           id="path2246" />
        <path
           class="cls-5"
           d="M956.26,1072.78v-89.34c-33.55,0-60.74,20-60.74,44.67s27.19,44.67,60.74,44.67Z"
           id="path2248" />
      </g>
      <path
         class="cls-7"
         d="M837.17,1077.42v6.55c70.61,0,127.84,57.24,127.84,127.84s-57.23,127.84-127.84,127.84v6.55c74.23,0,134.39-60.17,134.39-134.39s-60.17-134.39-134.39-134.39Z"
         id="path2252" />
      <path
         class="cls-1"
         d="M1189.76,936.17v6.55c-70.61,0-127.84,57.24-127.84,127.84s57.23,127.84,127.84,127.84v6.55c-74.23,0-134.39-60.17-134.39-134.39,0-74.22,60.17-134.39,134.39-134.39Z"
         id="path2254" />
      <g
         id="g2260">
        <path
           class="cls-4"
           d="M1131.41,808.37c0,24.67-27.19,44.67-60.74,44.67v-89.34c33.55,0,60.74,20,60.74,44.67Z"
           id="path2256" />
        <path
           class="cls-4"
           d="M1070.67,853.04v89.34c-33.55,0-60.74-20-60.74-44.67s27.19-44.67,60.74-44.67Z"
           id="path2258" />
      </g>
      <g
         id="g2266">
        <path
           class="cls-4"
           d="M1131.41,988.08c0,24.67-27.19,44.67-60.74,44.67v-89.34c33.55,0,60.74,20,60.74,44.67Z"
           id="path2262" />
        <path
           class="cls-4"
           d="M1070.67,1032.75v89.34c-33.55,0-60.74-20-60.74-44.67s27.19-44.67,60.74-44.67Z"
           id="path2264" />
      </g>
      <g
         id="g2272">
        <path
           class="cls-3"
           d="M1131.41,941.12c0-24.67-27.19-44.67-60.74-44.67v89.34c33.55,0,60.74-20,60.74-44.67Z"
           id="path2268" />
        <path
           class="cls-3"
           d="M1070.67,896.45v-89.34c-33.55,0-60.74,20-60.74,44.67s27.19,44.67,60.74,44.67Z"
           id="path2270" />
      </g>
      <g
         id="g2278">
        <path
           class="cls-5"
           d="M1131.41,1121.7c0-24.67-27.19-44.67-60.74-44.67v89.34c33.55,0,60.74-20,60.74-44.67Z"
           id="path2274" />
        <path
           class="cls-5"
           d="M1070.67,1077.03v-89.34c-33.55,0-60.74,20-60.74,44.67s27.19,44.67,60.74,44.67Z"
           id="path2276" />
      </g>
    </g>
  </g>
  <g
     class="cls-8"
     clip-path="url(#clippath)"
     id="g3161"
     transform="translate(-2315.5932,-901.52542)">
    <g
       id="g3159">
      <path
         class="cls-7"
         d="m 181.12,-89.7 v 6.55 c 70.61,0 127.84,57.24 127.84,127.84 0,70.6 -57.23,127.84 -127.84,127.84 v 6.55 c 74.23,0 134.39,-60.17 134.39,-134.39 0,-74.22 -60.17,-134.39 -134.39,-134.39 z"
         id="path2411" />
      <g
         id="g2417">
        <path
           class="cls-4"
           d="m 122.76,44.69 c 0,24.67 -27.19,44.67 -60.74,44.67 V 0.02 c 33.55,0 60.74,20 60.74,44.67 z"
           id="path2413" />
        <path
           class="cls-4"
           d="m 62.03,89.36 v 89.34 c -33.55,0 -60.74,-20 -60.74,-44.67 0,-24.67 27.19,-44.67 60.74,-44.67 z"
           id="path2415" />
      </g>
      <g
         id="g2423">
        <path
           class="cls-4"
           d="m 122.76,224.4 c 0,24.67 -27.19,44.67 -60.74,44.67 v -89.34 c 33.55,0 60.74,20 60.74,44.67 z"
           id="path2419" />
        <path
           class="cls-4"
           d="m 62.03,269.07 v 89.34 c -33.55,0 -60.74,-20 -60.74,-44.67 0,-24.67 27.19,-44.67 60.74,-44.67 z"
           id="path2421" />
      </g>
      <g
         id="g2429">
        <path
           class="cls-3"
           d="m 122.76,177.44 c 0,-24.67 -27.19,-44.67 -60.74,-44.67 v 89.34 c 33.55,0 60.74,-20 60.74,-44.67 z"
           id="path2425" />
        <path
           class="cls-3"
           d="M 62.03,132.77 V 43.43 c -33.55,0 -60.75,20 -60.75,44.67 0,24.67 27.19,44.67 60.74,44.67 z"
           id="path2427" />
      </g>
      <g
         id="g2435">
        <path
           class="cls-5"
           d="m 122.76,358.02 c 0,-24.67 -27.19,-44.67 -60.74,-44.67 v 89.34 c 33.55,0 60.74,-20 60.74,-44.67 z"
           id="path2431" />
        <path
           class="cls-5"
           d="m 62.03,313.35 v -89.34 c -33.55,0 -60.74,20 -60.74,44.67 0,24.67 27.19,44.67 60.74,44.67 z"
           id="path2433" />
      </g>
      <g
         id="g2441">
        <path
           class="cls-5"
           d="m 241.86,42.57 c 0,24.67 -27.19,44.67 -60.74,44.67 V -2.1 c 33.55,0 60.74,20 60.74,44.67 z"
           id="path2437" />
        <path
           class="cls-5"
           d="m 181.12,87.24 v 89.34 c -33.55,0 -60.74,-20 -60.74,-44.67 0,-24.67 27.19,-44.67 60.74,-44.67 z"
           id="path2439" />
      </g>
      <g
         id="g2447">
        <path
           class="cls-2"
           d="m 241.86,222.28 c 0,24.67 -27.19,44.67 -60.74,44.67 v -89.34 c 33.55,0 60.74,20 60.74,44.67 z"
           id="path2443" />
        <path
           class="cls-2"
           d="m 181.12,266.95 v 89.34 c -33.55,0 -60.74,-20 -60.74,-44.67 0,-24.67 27.19,-44.67 60.74,-44.67 z"
           id="path2445" />
      </g>
      <g
         id="g2453">
        <path
           class="cls-4"
           d="m 241.86,175.32 c 0,-24.67 -27.19,-44.67 -60.74,-44.67 v 89.34 c 33.55,0 60.74,-20 60.74,-44.67 z"
           id="path2449" />
        <path
           class="cls-4"
           d="M 181.12,130.65 V 41.31 c -33.55,0 -60.74,20 -60.74,44.67 0,24.67 27.19,44.67 60.74,44.67 z"
           id="path2451" />
      </g>
      <g
         id="g2459">
        <path
           class="cls-4"
           d="m 241.86,355.9 c 0,-24.67 -27.19,-44.67 -60.74,-44.67 v 89.34 c 33.55,0 60.74,-20 60.74,-44.67 z"
           id="path2455" />
        <path
           class="cls-4"
           d="m 181.12,311.22 v -89.34 c -33.55,0 -60.74,20 -60.74,44.67 0,24.67 27.19,44.67 60.74,44.67 z"
           id="path2457" />
      </g>
      <g
         id="g2465">
        <path
           class="cls-4"
           d="m 360.95,40.44 c 0,24.67 -27.19,44.67 -60.74,44.67 V -4.23 c 33.55,0 60.74,20 60.74,44.67 z"
           id="path2461" />
        <path
           class="cls-4"
           d="m 300.21,85.12 v 89.34 c -33.55,0 -60.74,-20 -60.74,-44.67 0,-24.67 27.19,-44.67 60.74,-44.67 z"
           id="path2463" />
      </g>
      <g
         id="g2471">
        <path
           class="cls-4"
           d="m 360.95,220.15 c 0,24.67 -27.19,44.67 -60.74,44.67 v -89.34 c 33.55,0 60.74,20 60.74,44.67 z"
           id="path2467" />
        <path
           class="cls-4"
           d="m 300.21,264.82 v 89.34 c -33.55,0 -60.74,-20 -60.74,-44.67 0,-24.67 27.19,-44.67 60.74,-44.67 z"
           id="path2469" />
      </g>
      <g
         id="g2477">
        <path
           class="cls-3"
           d="m 360.95,173.2 c 0,-24.67 -27.19,-44.67 -60.74,-44.67 v 89.34 c 33.55,0 60.74,-20 60.74,-44.67 z"
           id="path2473" />
        <path
           class="cls-3"
           d="M 300.21,128.53 V 39.19 c -33.55,0 -60.74,20 -60.74,44.67 0,24.67 27.19,44.67 60.74,44.67 z"
           id="path2475" />
      </g>
      <g
         id="g2483">
        <path
           class="cls-5"
           d="m 360.95,353.77 c 0,-24.67 -27.19,-44.67 -60.74,-44.67 v 89.34 c 33.55,0 60.74,-20 60.74,-44.67 z"
           id="path2479" />
        <path
           class="cls-5"
           d="m 300.21,309.1 v -89.34 c -33.55,0 -60.74,20 -60.74,44.67 0,24.67 27.19,44.67 60.74,44.67 z"
           id="path2481" />
      </g>
      <path
         class="cls-1"
         d="m 181.11,575.94 v 6.55 c -70.61,0 -127.84,57.24 -127.84,127.84 0,70.6 57.23,127.84 127.84,127.84 v 6.55 c -74.23,0 -134.39,-60.17 -134.39,-134.39 0,-74.22 60.17,-134.39 134.39,-134.39 z"
         id="path2485" />
      <g
         id="g2491">
        <path
           class="cls-4"
           d="m 122.76,448.13 c 0,24.67 -27.19,44.67 -60.74,44.67 v -89.34 c 33.55,0 60.74,20 60.74,44.67 z"
           id="path2487" />
        <path
           class="cls-4"
           d="m 62.03,492.8 v 89.34 c -33.55,0 -60.74,-20 -60.74,-44.67 0,-24.67 27.19,-44.67 60.74,-44.67 z"
           id="path2489" />
      </g>
      <g
         id="g2497">
        <path
           class="cls-4"
           d="m 122.76,627.84 c 0,24.67 -27.19,44.67 -60.74,44.67 v -89.34 c 33.55,0 60.74,20 60.74,44.67 z"
           id="path2493" />
        <path
           class="cls-4"
           d="m 62.03,672.51 v 89.34 c -33.55,0 -60.74,-20 -60.74,-44.67 0,-24.67 27.19,-44.67 60.74,-44.67 z"
           id="path2495" />
      </g>
      <g
         id="g2503">
        <path
           class="cls-3"
           d="m 122.76,580.88 c 0,-24.67 -27.19,-44.67 -60.74,-44.67 v 89.34 c 33.55,0 60.74,-20 60.74,-44.67 z"
           id="path2499" />
        <path
           class="cls-3"
           d="m 62.03,536.21 v -89.34 c -33.55,0 -60.74,20 -60.74,44.67 0,24.67 27.19,44.67 60.74,44.67 z"
           id="path2501" />
      </g>
      <g
         id="g2509">
        <path
           class="cls-5"
           d="m 122.76,761.46 c 0,-24.67 -27.19,-44.67 -60.74,-44.67 v 89.34 c 33.55,0 60.74,-20 60.74,-44.67 z"
           id="path2505" />
        <path
           class="cls-5"
           d="m 62.03,716.79 v -89.34 c -33.55,0 -60.74,20 -60.74,44.67 0,24.67 27.19,44.67 60.74,44.67 z"
           id="path2507" />
      </g>
      <g
         id="g2515">
        <path
           class="cls-5"
           d="m 241.86,446.01 c 0,24.67 -27.19,44.67 -60.74,44.67 v -89.34 c 33.55,0 60.74,20 60.74,44.67 z"
           id="path2511" />
        <path
           class="cls-5"
           d="m 181.12,490.68 v 89.34 c -33.55,0 -60.74,-20 -60.74,-44.67 0,-24.67 27.19,-44.67 60.74,-44.67 z"
           id="path2513" />
      </g>
      <g
         id="g2521">
        <path
           class="cls-2"
           d="m 241.86,625.71 c 0,24.67 -27.19,44.67 -60.74,44.67 v -89.34 c 33.55,0 60.74,20 60.74,44.67 z"
           id="path2517" />
        <path
           class="cls-2"
           d="m 181.12,670.39 v 89.34 c -33.55,0 -60.74,-20 -60.74,-44.67 0,-24.67 27.19,-44.67 60.74,-44.67 z"
           id="path2519" />
      </g>
      <g
         id="g2527">
        <path
           class="cls-4"
           d="m 241.86,578.76 c 0,-24.67 -27.19,-44.67 -60.74,-44.67 v 89.34 c 33.55,0 60.74,-20 60.74,-44.67 z"
           id="path2523" />
        <path
           class="cls-4"
           d="m 181.12,534.09 v -89.34 c -33.55,0 -60.74,20 -60.74,44.67 0,24.67 27.19,44.67 60.74,44.67 z"
           id="path2525" />
      </g>
      <g
         id="g2533">
        <path
           class="cls-4"
           d="m 241.86,759.34 c 0,-24.67 -27.19,-44.67 -60.74,-44.67 v 89.34 c 33.55,0 60.74,-20 60.74,-44.67 z"
           id="path2529" />
        <path
           class="cls-4"
           d="m 181.12,714.66 v -89.34 c -33.55,0 -60.74,20 -60.74,44.67 0,24.67 27.19,44.67 60.74,44.67 z"
           id="path2531" />
      </g>
      <g
         id="g2539">
        <path
           class="cls-4"
           d="m 360.95,443.88 c 0,24.67 -27.19,44.67 -60.74,44.67 v -89.34 c 33.55,0 60.74,20 60.74,44.67 z"
           id="path2535" />
        <path
           class="cls-4"
           d="m 300.21,488.55 v 89.34 c -33.55,0 -60.74,-20 -60.74,-44.67 0,-24.67 27.19,-44.67 60.74,-44.67 z"
           id="path2537" />
      </g>
      <g
         id="g2545">
        <path
           class="cls-4"
           d="m 360.95,623.59 c 0,24.67 -27.19,44.67 -60.74,44.67 v -89.34 c 33.55,0 60.74,20 60.74,44.67 z"
           id="path2541" />
        <path
           class="cls-4"
           d="m 300.21,668.26 v 89.34 c -33.55,0 -60.74,-20 -60.74,-44.67 0,-24.67 27.19,-44.67 60.74,-44.67 z"
           id="path2543" />
      </g>
      <g
         id="g2551">
        <path
           class="cls-3"
           d="m 360.95,576.64 c 0,-24.67 -27.19,-44.67 -60.74,-44.67 v 89.34 c 33.55,0 60.74,-20 60.74,-44.67 z"
           id="path2547" />
        <path
           class="cls-3"
           d="m 300.21,531.96 v -89.34 c -33.55,0 -60.74,20 -60.74,44.67 0,24.67 27.19,44.67 60.74,44.67 z"
           id="path2549" />
      </g>
      <g
         id="g2557">
        <path
           class="cls-5"
           d="m 360.95,757.21 c 0,-24.67 -27.19,-44.67 -60.74,-44.67 v 89.34 c 33.55,0 60.74,-20 60.74,-44.67 z"
           id="path2553" />
        <path
           class="cls-5"
           d="M 300.21,712.54 V 623.2 c -33.55,0 -60.74,20 -60.74,44.67 0,24.67 27.19,44.67 60.74,44.67 z"
           id="path2555" />
      </g>
      <path
         class="cls-1"
         d="m 533.7,172.5 v 6.55 c -70.61,0 -127.84,57.24 -127.84,127.84 0,70.6 57.23,127.84 127.84,127.84 v 6.55 c -74.23,0 -134.39,-60.17 -134.39,-134.39 0,-74.22 60.17,-134.39 134.39,-134.39 z"
         id="path2559" />
      <g
         id="g2565">
        <path
           class="cls-4"
           d="m 475.35,44.69 c 0,24.67 -27.19,44.67 -60.74,44.67 V 0.02 c 33.55,0 60.74,20 60.74,44.67 z"
           id="path2561" />
        <path
           class="cls-4"
           d="m 414.61,89.36 v 89.34 c -33.55,0 -60.74,-20 -60.74,-44.67 0,-24.67 27.19,-44.67 60.74,-44.67 z"
           id="path2563" />
      </g>
      <g
         id="g2571">
        <path
           class="cls-4"
           d="m 475.35,224.4 c 0,24.67 -27.19,44.67 -60.74,44.67 v -89.34 c 33.55,0 60.74,20 60.74,44.67 z"
           id="path2567" />
        <path
           class="cls-4"
           d="m 414.61,269.07 v 89.34 c -33.55,0 -60.74,-20 -60.74,-44.67 0,-24.67 27.19,-44.67 60.74,-44.67 z"
           id="path2569" />
      </g>
      <g
         id="g2577">
        <path
           class="cls-3"
           d="m 475.35,177.44 c 0,-24.67 -27.19,-44.67 -60.74,-44.67 v 89.34 c 33.55,0 60.74,-20 60.74,-44.67 z"
           id="path2573" />
        <path
           class="cls-3"
           d="M 414.61,132.77 V 43.43 c -33.55,0 -60.74,20 -60.74,44.67 0,24.67 27.19,44.67 60.74,44.67 z"
           id="path2575" />
      </g>
      <g
         id="g2583">
        <path
           class="cls-5"
           d="m 475.35,358.02 c 0,-24.67 -27.19,-44.67 -60.74,-44.67 v 89.34 c 33.55,0 60.74,-20 60.74,-44.67 z"
           id="path2579" />
        <path
           class="cls-5"
           d="m 414.61,313.35 v -89.34 c -33.55,0 -60.74,20 -60.74,44.67 0,24.67 27.19,44.67 60.74,44.67 z"
           id="path2581" />
      </g>
      <g
         id="g2589">
        <path
           class="cls-5"
           d="m 594.44,42.57 c 0,24.67 -27.19,44.67 -60.74,44.67 V -2.1 c 33.55,0 60.74,20 60.74,44.67 z"
           id="path2585" />
        <path
           class="cls-5"
           d="m 533.7,87.24 v 89.34 c -33.55,0 -60.74,-20 -60.74,-44.67 0,-24.67 27.19,-44.67 60.74,-44.67 z"
           id="path2587" />
      </g>
      <g
         id="g2595">
        <path
           class="cls-2"
           d="m 594.44,222.28 c 0,24.67 -27.19,44.67 -60.74,44.67 v -89.34 c 33.55,0 60.74,20 60.74,44.67 z"
           id="path2591" />
        <path
           class="cls-2"
           d="m 533.7,266.95 v 89.34 c -33.55,0 -60.74,-20 -60.74,-44.67 0,-24.67 27.19,-44.67 60.74,-44.67 z"
           id="path2593" />
      </g>
      <g
         id="g2601">
        <path
           class="cls-4"
           d="m 594.44,175.32 c 0,-24.67 -27.19,-44.67 -60.74,-44.67 v 89.34 c 33.55,0 60.74,-20 60.74,-44.67 z"
           id="path2597" />
        <path
           class="cls-4"
           d="M 533.7,130.65 V 41.31 c -33.55,0 -60.74,20 -60.74,44.67 0,24.67 27.19,44.67 60.74,44.67 z"
           id="path2599" />
      </g>
      <g
         id="g2607">
        <path
           class="cls-4"
           d="m 594.44,355.9 c 0,-24.67 -27.19,-44.67 -60.74,-44.67 v 89.34 c 33.55,0 60.74,-20 60.74,-44.67 z"
           id="path2603" />
        <path
           class="cls-4"
           d="m 533.7,311.22 v -89.34 c -33.55,0 -60.74,20 -60.74,44.67 0,24.67 27.19,44.67 60.74,44.67 z"
           id="path2605" />
      </g>
      <g
         id="g2613">
        <path
           class="cls-4"
           d="m 713.53,40.44 c 0,24.67 -27.19,44.67 -60.74,44.67 V -4.23 c 33.55,0 60.74,20 60.74,44.67 z"
           id="path2609" />
        <path
           class="cls-4"
           d="m 652.79,85.12 v 89.34 c -33.55,0 -60.74,-20 -60.74,-44.67 0,-24.67 27.19,-44.67 60.74,-44.67 z"
           id="path2611" />
      </g>
      <g
         id="g2619">
        <path
           class="cls-4"
           d="m 713.53,220.15 c 0,24.67 -27.19,44.67 -60.74,44.67 v -89.34 c 33.55,0 60.74,20 60.74,44.67 z"
           id="path2615" />
        <path
           class="cls-4"
           d="m 652.79,264.82 v 89.34 c -33.55,0 -60.74,-20 -60.74,-44.67 0,-24.67 27.19,-44.67 60.74,-44.67 z"
           id="path2617" />
      </g>
      <g
         id="g2625">
        <path
           class="cls-3"
           d="m 713.53,173.2 c 0,-24.67 -27.19,-44.67 -60.74,-44.67 v 89.34 c 33.55,0 60.74,-20 60.74,-44.67 z"
           id="path2621" />
        <path
           class="cls-3"
           d="M 652.79,128.53 V 39.19 c -33.55,0 -60.74,20 -60.74,44.67 0,24.67 27.19,44.67 60.74,44.67 z"
           id="path2623" />
      </g>
      <g
         id="g2631">
        <path
           class="cls-5"
           d="m 713.53,353.77 c 0,-24.67 -27.19,-44.67 -60.74,-44.67 v 89.34 c 33.55,0 60.74,-20 60.74,-44.67 z"
           id="path2627" />
        <path
           class="cls-5"
           d="m 652.79,309.1 v -89.34 c -33.55,0 -60.74,20 -60.74,44.67 0,24.67 27.19,44.67 60.74,44.67 z"
           id="path2629" />
      </g>
      <g
         id="g2637">
        <path
           class="cls-4"
           d="m 475.35,448.13 c 0,24.67 -27.19,44.67 -60.74,44.67 v -89.34 c 33.55,0 60.74,20 60.74,44.67 z"
           id="path2633" />
        <path
           class="cls-4"
           d="m 414.61,492.8 v 89.34 c -33.55,0 -60.74,-20 -60.74,-44.67 0,-24.67 27.19,-44.67 60.74,-44.67 z"
           id="path2635" />
      </g>
      <g
         id="g2643">
        <path
           class="cls-4"
           d="m 475.35,627.84 c 0,24.67 -27.19,44.67 -60.74,44.67 v -89.34 c 33.55,0 60.74,20 60.74,44.67 z"
           id="path2639" />
        <path
           class="cls-4"
           d="m 414.61,672.51 v 89.34 c -33.55,0 -60.74,-20 -60.74,-44.67 0,-24.67 27.19,-44.67 60.74,-44.67 z"
           id="path2641" />
      </g>
      <g
         id="g2649">
        <path
           class="cls-3"
           d="m 475.35,580.88 c 0,-24.67 -27.19,-44.67 -60.74,-44.67 v 89.34 c 33.55,0 60.74,-20 60.74,-44.67 z"
           id="path2645" />
        <path
           class="cls-3"
           d="m 414.61,536.21 v -89.34 c -33.55,0 -60.74,20 -60.74,44.67 0,24.67 27.19,44.67 60.74,44.67 z"
           id="path2647" />
      </g>
      <g
         id="g2655">
        <path
           class="cls-5"
           d="m 475.35,761.46 c 0,-24.67 -27.19,-44.67 -60.74,-44.67 v 89.34 c 33.55,0 60.74,-20 60.74,-44.67 z"
           id="path2651" />
        <path
           class="cls-5"
           d="m 414.61,716.79 v -89.34 c -33.55,0 -60.74,20 -60.74,44.67 0,24.67 27.19,44.67 60.74,44.67 z"
           id="path2653" />
      </g>
      <g
         id="g2661">
        <path
           class="cls-5"
           d="m 594.44,446.01 c 0,24.67 -27.19,44.67 -60.74,44.67 v -89.34 c 33.55,0 60.74,20 60.74,44.67 z"
           id="path2657" />
        <path
           class="cls-5"
           d="m 533.7,490.68 v 89.34 c -33.55,0 -60.74,-20 -60.74,-44.67 0,-24.67 27.19,-44.67 60.74,-44.67 z"
           id="path2659" />
      </g>
      <g
         id="g2667">
        <path
           class="cls-2"
           d="m 594.44,625.71 c 0,24.67 -27.19,44.67 -60.74,44.67 v -89.34 c 33.55,0 60.74,20 60.74,44.67 z"
           id="path2663" />
        <path
           class="cls-2"
           d="m 533.7,670.39 v 89.34 c -33.55,0 -60.74,-20 -60.74,-44.67 0,-24.67 27.19,-44.67 60.74,-44.67 z"
           id="path2665" />
      </g>
      <g
         id="g2673">
        <path
           class="cls-4"
           d="m 594.44,578.76 c 0,-24.67 -27.19,-44.67 -60.74,-44.67 v 89.34 c 33.55,0 60.74,-20 60.74,-44.67 z"
           id="path2669" />
        <path
           class="cls-4"
           d="m 533.7,534.09 v -89.34 c -33.55,0 -60.74,20 -60.74,44.67 0,24.67 27.19,44.67 60.74,44.67 z"
           id="path2671" />
      </g>
      <g
         id="g2679">
        <path
           class="cls-4"
           d="m 594.44,759.34 c 0,-24.67 -27.19,-44.67 -60.74,-44.67 v 89.34 c 33.55,0 60.74,-20 60.74,-44.67 z"
           id="path2675" />
        <path
           class="cls-4"
           d="m 533.7,714.66 v -89.34 c -33.55,0 -60.74,20 -60.74,44.67 0,24.67 27.19,44.67 60.74,44.67 z"
           id="path2677" />
      </g>
      <g
         id="g2685">
        <path
           class="cls-4"
           d="m 713.53,443.88 c 0,24.67 -27.19,44.67 -60.74,44.67 v -89.34 c 33.55,0 60.74,20 60.74,44.67 z"
           id="path2681" />
        <path
           class="cls-4"
           d="m 652.79,488.55 v 89.34 c -33.55,0 -60.74,-20 -60.74,-44.67 0,-24.67 27.19,-44.67 60.74,-44.67 z"
           id="path2683" />
      </g>
      <g
         id="g2691">
        <path
           class="cls-4"
           d="m 713.53,623.59 c 0,24.67 -27.19,44.67 -60.74,44.67 v -89.34 c 33.55,0 60.74,20 60.74,44.67 z"
           id="path2687" />
        <path
           class="cls-4"
           d="m 652.79,668.26 v 89.34 c -33.55,0 -60.74,-20 -60.74,-44.67 0,-24.67 27.19,-44.67 60.74,-44.67 z"
           id="path2689" />
      </g>
      <g
         id="g2697">
        <path
           class="cls-3"
           d="m 713.53,576.64 c 0,-24.67 -27.19,-44.67 -60.74,-44.67 v 89.34 c 33.55,0 60.74,-20 60.74,-44.67 z"
           id="path2693" />
        <path
           class="cls-3"
           d="m 652.79,531.96 v -89.34 c -33.55,0 -60.74,20 -60.74,44.67 0,24.67 27.19,44.67 60.74,44.67 z"
           id="path2695" />
      </g>
      <g
         id="g2703">
        <path
           class="cls-5"
           d="m 713.53,757.21 c 0,-24.67 -27.19,-44.67 -60.74,-44.67 v 89.34 c 33.55,0 60.74,-20 60.74,-44.67 z"
           id="path2699" />
        <path
           class="cls-5"
           d="M 652.79,712.54 V 623.2 c -33.55,0 -60.74,20 -60.74,44.67 0,24.67 27.19,44.67 60.74,44.67 z"
           id="path2701" />
      </g>
      <path
         class="cls-7"
         d="m 837.17,-89.7 v 6.55 c 70.61,0 127.84,57.24 127.84,127.84 0,70.6 -57.23,127.84 -127.84,127.84 v 6.55 c 74.23,0 134.39,-60.17 134.39,-134.39 0,-74.22 -60.17,-134.39 -134.39,-134.39 z"
         id="path2705" />
      <g
         id="g2711">
        <path
           class="cls-4"
           d="m 778.82,44.69 c 0,24.67 -27.19,44.67 -60.74,44.67 V 0.02 c 33.55,0 60.74,20 60.74,44.67 z"
           id="path2707" />
        <path
           class="cls-4"
           d="m 718.08,89.36 v 89.34 c -33.55,0 -60.74,-20 -60.74,-44.67 0,-24.67 27.19,-44.67 60.74,-44.67 z"
           id="path2709" />
      </g>
      <g
         id="g2717">
        <path
           class="cls-4"
           d="m 778.82,224.4 c 0,24.67 -27.19,44.67 -60.74,44.67 v -89.34 c 33.55,0 60.74,20 60.74,44.67 z"
           id="path2713" />
        <path
           class="cls-4"
           d="m 718.08,269.07 v 89.34 c -33.55,0 -60.74,-20 -60.74,-44.67 0,-24.67 27.19,-44.67 60.74,-44.67 z"
           id="path2715" />
      </g>
      <g
         id="g2723">
        <path
           class="cls-3"
           d="m 778.82,177.44 c 0,-24.67 -27.19,-44.67 -60.74,-44.67 v 89.34 c 33.55,0 60.74,-20 60.74,-44.67 z"
           id="path2719" />
        <path
           class="cls-3"
           d="M 718.08,132.77 V 43.43 c -33.55,0 -60.74,20 -60.74,44.67 0,24.67 27.19,44.67 60.74,44.67 z"
           id="path2721" />
      </g>
      <g
         id="g2729">
        <path
           class="cls-5"
           d="m 778.82,358.02 c 0,-24.67 -27.19,-44.67 -60.74,-44.67 v 89.34 c 33.55,0 60.74,-20 60.74,-44.67 z"
           id="path2725" />
        <path
           class="cls-5"
           d="m 718.08,313.35 v -89.34 c -33.55,0 -60.74,20 -60.74,44.67 0,24.67 27.19,44.67 60.74,44.67 z"
           id="path2727" />
      </g>
      <g
         id="g2735">
        <path
           class="cls-5"
           d="m 897.91,42.57 c 0,24.67 -27.19,44.67 -60.74,44.67 V -2.1 c 33.55,0 60.74,20 60.74,44.67 z"
           id="path2731" />
        <path
           class="cls-5"
           d="m 837.17,87.24 v 89.34 c -33.55,0 -60.74,-20 -60.74,-44.67 0,-24.67 27.19,-44.67 60.74,-44.67 z"
           id="path2733" />
      </g>
      <g
         id="g2741">
        <path
           class="cls-2"
           d="m 897.91,222.28 c 0,24.67 -27.19,44.67 -60.74,44.67 v -89.34 c 33.55,0 60.74,20 60.74,44.67 z"
           id="path2737" />
        <path
           class="cls-2"
           d="m 837.17,266.95 v 89.34 c -33.55,0 -60.74,-20 -60.74,-44.67 0,-24.67 27.19,-44.67 60.74,-44.67 z"
           id="path2739" />
      </g>
      <g
         id="g2747">
        <path
           class="cls-4"
           d="m 897.91,175.32 c 0,-24.67 -27.19,-44.67 -60.74,-44.67 v 89.34 c 33.55,0 60.74,-20 60.74,-44.67 z"
           id="path2743" />
        <path
           class="cls-4"
           d="M 837.17,130.65 V 41.31 c -33.55,0 -60.74,20 -60.74,44.67 0,24.67 27.19,44.67 60.74,44.67 z"
           id="path2745" />
      </g>
      <g
         id="g2753">
        <path
           class="cls-4"
           d="m 897.91,355.9 c 0,-24.67 -27.19,-44.67 -60.74,-44.67 v 89.34 c 33.55,0 60.74,-20 60.74,-44.67 z"
           id="path2749" />
        <path
           class="cls-4"
           d="m 837.17,311.22 v -89.34 c -33.55,0 -60.74,20 -60.74,44.67 0,24.67 27.19,44.67 60.74,44.67 z"
           id="path2751" />
      </g>
      <g
         id="g2759">
        <path
           class="cls-4"
           d="m 1017,40.44 c 0,24.67 -27.19,44.67 -60.74,44.67 V -4.23 c 33.55,0 60.74,20 60.74,44.67 z"
           id="path2755" />
        <path
           class="cls-4"
           d="m 956.26,85.12 v 89.34 c -33.55,0 -60.74,-20 -60.74,-44.67 0,-24.67 27.19,-44.67 60.74,-44.67 z"
           id="path2757" />
      </g>
      <g
         id="g2765">
        <path
           class="cls-4"
           d="m 1017,220.15 c 0,24.67 -27.19,44.67 -60.74,44.67 v -89.34 c 33.55,0 60.74,20 60.74,44.67 z"
           id="path2761" />
        <path
           class="cls-4"
           d="m 956.26,264.82 v 89.34 c -33.55,0 -60.74,-20 -60.74,-44.67 0,-24.67 27.19,-44.67 60.74,-44.67 z"
           id="path2763" />
      </g>
      <g
         id="g2771">
        <path
           class="cls-3"
           d="m 1017,173.2 c 0,-24.67 -27.19,-44.67 -60.74,-44.67 v 89.34 c 33.55,0 60.74,-20 60.74,-44.67 z"
           id="path2767" />
        <path
           class="cls-3"
           d="M 956.26,128.53 V 39.19 c -33.55,0 -60.74,20 -60.74,44.67 0,24.67 27.19,44.67 60.74,44.67 z"
           id="path2769" />
      </g>
      <g
         id="g2777">
        <path
           class="cls-5"
           d="m 1017,353.77 c 0,-24.67 -27.19,-44.67 -60.74,-44.67 v 89.34 c 33.55,0 60.74,-20 60.74,-44.67 z"
           id="path2773" />
        <path
           class="cls-5"
           d="m 956.26,309.1 v -89.34 c -33.55,0 -60.74,20 -60.74,44.67 0,24.67 27.19,44.67 60.74,44.67 z"
           id="path2775" />
      </g>
      <path
         class="cls-1"
         d="m 837.17,575.94 v 6.55 c -70.61,0 -127.84,57.24 -127.84,127.84 0,70.6 57.23,127.84 127.84,127.84 v 6.55 c -74.23,0 -134.39,-60.17 -134.39,-134.39 0,-74.22 60.17,-134.39 134.39,-134.39 z"
         id="path2779" />
      <g
         id="g2785">
        <path
           class="cls-4"
           d="m 778.82,448.13 c 0,24.67 -27.19,44.67 -60.74,44.67 v -89.34 c 33.55,0 60.74,20 60.74,44.67 z"
           id="path2781" />
        <path
           class="cls-4"
           d="m 718.08,492.8 v 89.34 c -33.55,0 -60.74,-20 -60.74,-44.67 0,-24.67 27.19,-44.67 60.74,-44.67 z"
           id="path2783" />
      </g>
      <g
         id="g2791">
        <path
           class="cls-4"
           d="m 778.82,627.84 c 0,24.67 -27.19,44.67 -60.74,44.67 v -89.34 c 33.55,0 60.74,20 60.74,44.67 z"
           id="path2787" />
        <path
           class="cls-4"
           d="m 718.08,672.51 v 89.34 c -33.55,0 -60.74,-20 -60.74,-44.67 0,-24.67 27.19,-44.67 60.74,-44.67 z"
           id="path2789" />
      </g>
      <g
         id="g2797">
        <path
           class="cls-3"
           d="m 778.82,580.88 c 0,-24.67 -27.19,-44.67 -60.74,-44.67 v 89.34 c 33.55,0 60.74,-20 60.74,-44.67 z"
           id="path2793" />
        <path
           class="cls-3"
           d="m 718.08,536.21 v -89.34 c -33.55,0 -60.74,20 -60.74,44.67 0,24.67 27.19,44.67 60.74,44.67 z"
           id="path2795" />
      </g>
      <g
         id="g2803">
        <path
           class="cls-5"
           d="m 778.82,761.46 c 0,-24.67 -27.19,-44.67 -60.74,-44.67 v 89.34 c 33.55,0 60.74,-20 60.74,-44.67 z"
           id="path2799" />
        <path
           class="cls-5"
           d="m 718.08,716.79 v -89.34 c -33.55,0 -60.74,20 -60.74,44.67 0,24.67 27.19,44.67 60.74,44.67 z"
           id="path2801" />
      </g>
      <g
         id="g2809">
        <path
           class="cls-5"
           d="m 897.91,446.01 c 0,24.67 -27.19,44.67 -60.74,44.67 v -89.34 c 33.55,0 60.74,20 60.74,44.67 z"
           id="path2805" />
        <path
           class="cls-5"
           d="m 837.17,490.68 v 89.34 c -33.55,0 -60.74,-20 -60.74,-44.67 0,-24.67 27.19,-44.67 60.74,-44.67 z"
           id="path2807" />
      </g>
      <g
         id="g2815">
        <path
           class="cls-2"
           d="m 897.91,625.71 c 0,24.67 -27.19,44.67 -60.74,44.67 v -89.34 c 33.55,0 60.74,20 60.74,44.67 z"
           id="path2811" />
        <path
           class="cls-2"
           d="m 837.17,670.39 v 89.34 c -33.55,0 -60.74,-20 -60.74,-44.67 0,-24.67 27.19,-44.67 60.74,-44.67 z"
           id="path2813" />
      </g>
      <g
         id="g2821">
        <path
           class="cls-4"
           d="m 897.91,578.76 c 0,-24.67 -27.19,-44.67 -60.74,-44.67 v 89.34 c 33.55,0 60.74,-20 60.74,-44.67 z"
           id="path2817" />
        <path
           class="cls-4"
           d="m 837.17,534.09 v -89.34 c -33.55,0 -60.74,20 -60.74,44.67 0,24.67 27.19,44.67 60.74,44.67 z"
           id="path2819" />
      </g>
      <g
         id="g2827">
        <path
           class="cls-4"
           d="m 897.91,759.34 c 0,-24.67 -27.19,-44.67 -60.74,-44.67 v 89.34 c 33.55,0 60.74,-20 60.74,-44.67 z"
           id="path2823" />
        <path
           class="cls-4"
           d="m 837.17,714.66 v -89.34 c -33.55,0 -60.74,20 -60.74,44.67 0,24.67 27.19,44.67 60.74,44.67 z"
           id="path2825" />
      </g>
      <g
         id="g2833">
        <path
           class="cls-4"
           d="m 1017,443.88 c 0,24.67 -27.19,44.67 -60.74,44.67 v -89.34 c 33.55,0 60.74,20 60.74,44.67 z"
           id="path2829" />
        <path
           class="cls-4"
           d="m 956.26,488.55 v 89.34 c -33.55,0 -60.74,-20 -60.74,-44.67 0,-24.67 27.19,-44.67 60.74,-44.67 z"
           id="path2831" />
      </g>
      <g
         id="g2839">
        <path
           class="cls-4"
           d="m 1017,623.59 c 0,24.67 -27.19,44.67 -60.74,44.67 v -89.34 c 33.55,0 60.74,20 60.74,44.67 z"
           id="path2835" />
        <path
           class="cls-4"
           d="m 956.26,668.26 v 89.34 c -33.55,0 -60.74,-20 -60.74,-44.67 0,-24.67 27.19,-44.67 60.74,-44.67 z"
           id="path2837" />
      </g>
      <g
         id="g2845">
        <path
           class="cls-3"
           d="m 1017,576.64 c 0,-24.67 -27.19,-44.67 -60.74,-44.67 v 89.34 c 33.55,0 60.74,-20 60.74,-44.67 z"
           id="path2841" />
        <path
           class="cls-3"
           d="m 956.26,531.96 v -89.34 c -33.55,0 -60.74,20 -60.74,44.67 0,24.67 27.19,44.67 60.74,44.67 z"
           id="path2843" />
      </g>
      <g
         id="g2851">
        <path
           class="cls-5"
           d="m 1017,757.21 c 0,-24.67 -27.19,-44.67 -60.74,-44.67 v 89.34 c 33.55,0 60.74,-20 60.74,-44.67 z"
           id="path2847" />
        <path
           class="cls-5"
           d="M 956.26,712.54 V 623.2 c -33.55,0 -60.74,20 -60.74,44.67 0,24.67 27.19,44.67 60.74,44.67 z"
           id="path2849" />
      </g>
      <path
         class="cls-1"
         d="m 1189.76,172.5 v 6.55 c -70.61,0 -127.84,57.24 -127.84,127.84 0,70.6 57.23,127.84 127.84,127.84 v 6.55 c -74.23,0 -134.39,-60.17 -134.39,-134.39 0,-74.22 60.17,-134.39 134.39,-134.39 z"
         id="path2853" />
      <g
         id="g2859">
        <path
           class="cls-4"
           d="m 1131.41,44.69 c 0,24.67 -27.19,44.67 -60.74,44.67 V 0.02 c 33.55,0 60.74,20 60.74,44.67 z"
           id="path2855" />
        <path
           class="cls-4"
           d="m 1070.67,89.36 v 89.34 c -33.55,0 -60.74,-20 -60.74,-44.67 0,-24.67 27.19,-44.67 60.74,-44.67 z"
           id="path2857" />
      </g>
      <g
         id="g2865">
        <path
           class="cls-4"
           d="m 1131.41,224.4 c 0,24.67 -27.19,44.67 -60.74,44.67 v -89.34 c 33.55,0 60.74,20 60.74,44.67 z"
           id="path2861" />
        <path
           class="cls-4"
           d="m 1070.67,269.07 v 89.34 c -33.55,0 -60.74,-20 -60.74,-44.67 0,-24.67 27.19,-44.67 60.74,-44.67 z"
           id="path2863" />
      </g>
      <g
         id="g2871">
        <path
           class="cls-3"
           d="m 1131.41,177.44 c 0,-24.67 -27.19,-44.67 -60.74,-44.67 v 89.34 c 33.55,0 60.74,-20 60.74,-44.67 z"
           id="path2867" />
        <path
           class="cls-3"
           d="M 1070.67,132.77 V 43.43 c -33.55,0 -60.74,20 -60.74,44.67 0,24.67 27.19,44.67 60.74,44.67 z"
           id="path2869" />
      </g>
      <g
         id="g2877">
        <path
           class="cls-5"
           d="m 1131.41,358.02 c 0,-24.67 -27.19,-44.67 -60.74,-44.67 v 89.34 c 33.55,0 60.74,-20 60.74,-44.67 z"
           id="path2873" />
        <path
           class="cls-5"
           d="m 1070.67,313.35 v -89.34 c -33.55,0 -60.74,20 -60.74,44.67 0,24.67 27.19,44.67 60.74,44.67 z"
           id="path2875" />
      </g>
      <path
         class="cls-1"
         d="m 1189.76,575.94 v 6.55 c -70.61,0 -127.84,57.24 -127.84,127.84 0,70.6 57.23,127.84 127.84,127.84 v 6.55 c -74.23,0 -134.39,-60.17 -134.39,-134.39 0,-74.22 60.17,-134.39 134.39,-134.39 z"
         id="path2879" />
      <g
         id="g2885">
        <path
           class="cls-4"
           d="m 1131.41,448.13 c 0,24.67 -27.19,44.67 -60.74,44.67 v -89.34 c 33.55,0 60.74,20 60.74,44.67 z"
           id="path2881" />
        <path
           class="cls-4"
           d="m 1070.67,492.8 v 89.34 c -33.55,0 -60.74,-20 -60.74,-44.67 0,-24.67 27.19,-44.67 60.74,-44.67 z"
           id="path2883" />
      </g>
      <g
         id="g2891">
        <path
           class="cls-4"
           d="m 1131.41,627.84 c 0,24.67 -27.19,44.67 -60.74,44.67 v -89.34 c 33.55,0 60.74,20 60.74,44.67 z"
           id="path2887" />
        <path
           class="cls-4"
           d="m 1070.67,672.51 v 89.34 c -33.55,0 -60.74,-20 -60.74,-44.67 0,-24.67 27.19,-44.67 60.74,-44.67 z"
           id="path2889" />
      </g>
      <g
         id="g2897">
        <path
           class="cls-3"
           d="m 1131.41,580.88 c 0,-24.67 -27.19,-44.67 -60.74,-44.67 v 89.34 c 33.55,0 60.74,-20 60.74,-44.67 z"
           id="path2893" />
        <path
           class="cls-3"
           d="m 1070.67,536.21 v -89.34 c -33.55,0 -60.74,20 -60.74,44.67 0,24.67 27.19,44.67 60.74,44.67 z"
           id="path2895" />
      </g>
      <g
         id="g2903">
        <path
           class="cls-5"
           d="m 1131.41,761.46 c 0,-24.67 -27.19,-44.67 -60.74,-44.67 v 89.34 c 33.55,0 60.74,-20 60.74,-44.67 z"
           id="path2899" />
        <path
           class="cls-5"
           d="m 1070.67,716.79 v -89.34 c -33.55,0 -60.74,20 -60.74,44.67 0,24.67 27.19,44.67 60.74,44.67 z"
           id="path2901" />
      </g>
      <g
         id="g2909">
        <path
           class="cls-4"
           d="m 122.76,808.37 c 0,24.67 -27.19,44.67 -60.74,44.67 V 763.7 c 33.55,0 60.74,20 60.74,44.67 z"
           id="path2905" />
        <path
           class="cls-4"
           d="m 62.03,853.04 v 89.34 c -33.55,0 -60.74,-20 -60.74,-44.67 0,-24.67 27.19,-44.67 60.74,-44.67 z"
           id="path2907" />
      </g>
      <g
         id="g2915">
        <path
           class="cls-4"
           d="m 122.76,988.08 c 0,24.67 -27.19,44.67 -60.74,44.67 v -89.34 c 33.55,0 60.74,20 60.74,44.67 z"
           id="path2911" />
        <path
           class="cls-4"
           d="m 62.03,1032.75 v 89.34 c -33.55,0 -60.74,-20 -60.74,-44.67 0,-24.67 27.19,-44.67 60.74,-44.67 z"
           id="path2913" />
      </g>
      <g
         id="g2921">
        <path
           class="cls-3"
           d="m 122.76,941.12 c 0,-24.67 -27.19,-44.67 -60.74,-44.67 v 89.34 c 33.55,0 60.74,-20 60.74,-44.67 z"
           id="path2917" />
        <path
           class="cls-3"
           d="m 62.03,896.45 v -89.34 c -33.55,0 -60.74,20 -60.74,44.67 0,24.67 27.19,44.67 60.74,44.67 z"
           id="path2919" />
      </g>
      <g
         id="g2927">
        <path
           class="cls-5"
           d="m 122.76,1121.7 c 0,-24.67 -27.19,-44.67 -60.74,-44.67 v 89.34 c 33.55,0 60.74,-20 60.74,-44.67 z"
           id="path2923" />
        <path
           class="cls-5"
           d="m 62.03,1077.03 v -89.34 c -33.55,0 -60.74,20 -60.74,44.67 0,24.67 27.19,44.67 60.74,44.67 z"
           id="path2925" />
      </g>
      <g
         id="g2933">
        <path
           class="cls-5"
           d="m 241.86,806.24 c 0,24.67 -27.19,44.67 -60.74,44.67 v -89.34 c 33.55,0 60.74,20 60.74,44.67 z"
           id="path2929" />
        <path
           class="cls-5"
           d="m 181.12,850.92 v 89.34 c -33.55,0 -60.74,-20 -60.74,-44.67 0,-24.67 27.19,-44.67 60.74,-44.67 z"
           id="path2931" />
      </g>
      <g
         id="g2939">
        <path
           class="cls-2"
           d="m 241.86,985.95 c 0,24.67 -27.19,44.67 -60.74,44.67 v -89.34 c 33.55,0 60.74,20 60.74,44.67 z"
           id="path2935" />
        <path
           class="cls-2"
           d="m 181.12,1030.63 v 89.34 c -33.55,0 -60.74,-20 -60.74,-44.67 0,-24.67 27.19,-44.67 60.74,-44.67 z"
           id="path2937" />
      </g>
      <g
         id="g2945">
        <path
           class="cls-4"
           d="m 241.86,939 c 0,-24.67 -27.19,-44.67 -60.74,-44.67 v 89.34 c 33.55,0 60.74,-20 60.74,-44.67 z"
           id="path2941" />
        <path
           class="cls-4"
           d="m 181.12,894.33 v -89.34 c -33.55,0 -60.74,20 -60.74,44.67 0,24.67 27.19,44.67 60.74,44.67 z"
           id="path2943" />
      </g>
      <g
         id="g2951">
        <path
           class="cls-4"
           d="m 241.86,1119.58 c 0,-24.67 -27.19,-44.67 -60.74,-44.67 v 89.34 c 33.55,0 60.74,-20 60.74,-44.67 z"
           id="path2947" />
        <path
           class="cls-4"
           d="m 181.12,1074.9 v -89.34 c -33.55,0 -60.74,20 -60.74,44.67 0,24.67 27.19,44.67 60.74,44.67 z"
           id="path2949" />
      </g>
      <g
         id="g2957">
        <path
           class="cls-4"
           d="m 360.95,804.12 c 0,24.67 -27.19,44.67 -60.74,44.67 v -89.34 c 33.55,0 60.74,20 60.74,44.67 z"
           id="path2953" />
        <path
           class="cls-4"
           d="m 300.21,848.79 v 89.34 c -33.55,0 -60.74,-20 -60.74,-44.67 0,-24.67 27.19,-44.67 60.74,-44.67 z"
           id="path2955" />
      </g>
      <g
         id="g2963">
        <path
           class="cls-4"
           d="m 360.95,983.83 c 0,24.67 -27.19,44.67 -60.74,44.67 v -89.34 c 33.55,0 60.74,20 60.74,44.67 z"
           id="path2959" />
        <path
           class="cls-4"
           d="m 300.21,1028.5 v 89.34 c -33.55,0 -60.74,-20 -60.74,-44.67 0,-24.67 27.19,-44.67 60.74,-44.67 z"
           id="path2961" />
      </g>
      <g
         id="g2969">
        <path
           class="cls-3"
           d="m 360.95,936.88 c 0,-24.67 -27.19,-44.67 -60.74,-44.67 v 89.34 c 33.55,0 60.74,-20 60.74,-44.67 z"
           id="path2965" />
        <path
           class="cls-3"
           d="m 300.21,892.2 v -89.34 c -33.55,0 -60.74,20 -60.74,44.67 0,24.67 27.19,44.67 60.74,44.67 z"
           id="path2967" />
      </g>
      <g
         id="g2975">
        <path
           class="cls-5"
           d="m 360.95,1117.45 c 0,-24.67 -27.19,-44.67 -60.74,-44.67 v 89.34 c 33.55,0 60.74,-20 60.74,-44.67 z"
           id="path2971" />
        <path
           class="cls-5"
           d="m 300.21,1072.78 v -89.34 c -33.55,0 -60.74,20 -60.74,44.67 0,24.67 27.19,44.67 60.74,44.67 z"
           id="path2973" />
      </g>
      <path
         class="cls-7"
         d="m 181.12,1077.42 v 6.55 c 70.61,0 127.84,57.24 127.84,127.84 0,70.6 -57.23,127.84 -127.84,127.84 v 6.55 c 74.23,0 134.39,-60.17 134.39,-134.39 0,-74.22 -60.17,-134.39 -134.39,-134.39 z"
         id="path2977" />
      <path
         class="cls-7"
         d="m 533.7,673.98 v 6.55 c 70.61,0 127.84,57.24 127.84,127.84 0,70.6 -57.23,127.84 -127.84,127.84 v 6.55 c 74.23,0 134.39,-60.17 134.39,-134.39 0,-74.22 -60.17,-134.39 -134.39,-134.39 z"
         id="path2979" />
      <path
         class="cls-1"
         d="m 533.7,936.17 v 6.55 c -70.61,0 -127.84,57.24 -127.84,127.84 0,70.6 57.23,127.84 127.84,127.84 v 6.55 c -74.23,0 -134.39,-60.17 -134.39,-134.39 0,-74.22 60.17,-134.39 134.39,-134.39 z"
         id="path2981" />
      <g
         id="g2987">
        <path
           class="cls-4"
           d="m 475.35,808.37 c 0,24.67 -27.19,44.67 -60.74,44.67 V 763.7 c 33.55,0 60.74,20 60.74,44.67 z"
           id="path2983" />
        <path
           class="cls-4"
           d="m 414.61,853.04 v 89.34 c -33.55,0 -60.74,-20 -60.74,-44.67 0,-24.67 27.19,-44.67 60.74,-44.67 z"
           id="path2985" />
      </g>
      <g
         id="g2993">
        <path
           class="cls-4"
           d="m 475.35,988.08 c 0,24.67 -27.19,44.67 -60.74,44.67 v -89.34 c 33.55,0 60.74,20 60.74,44.67 z"
           id="path2989" />
        <path
           class="cls-4"
           d="m 414.61,1032.75 v 89.34 c -33.55,0 -60.74,-20 -60.74,-44.67 0,-24.67 27.19,-44.67 60.74,-44.67 z"
           id="path2991" />
      </g>
      <g
         id="g2999">
        <path
           class="cls-3"
           d="m 475.35,941.12 c 0,-24.67 -27.19,-44.67 -60.74,-44.67 v 89.34 c 33.55,0 60.74,-20 60.74,-44.67 z"
           id="path2995" />
        <path
           class="cls-3"
           d="m 414.61,896.45 v -89.34 c -33.55,0 -60.74,20 -60.74,44.67 0,24.67 27.19,44.67 60.74,44.67 z"
           id="path2997" />
      </g>
      <g
         id="g3005">
        <path
           class="cls-5"
           d="m 475.35,1121.7 c 0,-24.67 -27.19,-44.67 -60.74,-44.67 v 89.34 c 33.55,0 60.74,-20 60.74,-44.67 z"
           id="path3001" />
        <path
           class="cls-5"
           d="m 414.61,1077.03 v -89.34 c -33.55,0 -60.74,20 -60.74,44.67 0,24.67 27.19,44.67 60.74,44.67 z"
           id="path3003" />
      </g>
      <g
         id="g3011">
        <path
           class="cls-5"
           d="m 594.44,806.24 c 0,24.67 -27.19,44.67 -60.74,44.67 v -89.34 c 33.55,0 60.74,20 60.74,44.67 z"
           id="path3007" />
        <path
           class="cls-5"
           d="m 533.7,850.92 v 89.34 c -33.55,0 -60.74,-20 -60.74,-44.67 0,-24.67 27.19,-44.67 60.74,-44.67 z"
           id="path3009" />
      </g>
      <g
         id="g3017">
        <path
           class="cls-2"
           d="m 594.44,985.95 c 0,24.67 -27.19,44.67 -60.74,44.67 v -89.34 c 33.55,0 60.74,20 60.74,44.67 z"
           id="path3013" />
        <path
           class="cls-2"
           d="m 533.7,1030.63 v 89.34 c -33.55,0 -60.74,-20 -60.74,-44.67 0,-24.67 27.19,-44.67 60.74,-44.67 z"
           id="path3015" />
      </g>
      <g
         id="g3023">
        <path
           class="cls-4"
           d="m 594.44,939 c 0,-24.67 -27.19,-44.67 -60.74,-44.67 v 89.34 c 33.55,0 60.74,-20 60.74,-44.67 z"
           id="path3019" />
        <path
           class="cls-4"
           d="m 533.7,894.33 v -89.34 c -33.55,0 -60.74,20 -60.74,44.67 0,24.67 27.19,44.67 60.74,44.67 z"
           id="path3021" />
      </g>
      <g
         id="g3029">
        <path
           class="cls-4"
           d="m 594.44,1119.58 c 0,-24.67 -27.19,-44.67 -60.74,-44.67 v 89.34 c 33.55,0 60.74,-20 60.74,-44.67 z"
           id="path3025" />
        <path
           class="cls-4"
           d="m 533.7,1074.9 v -89.34 c -33.55,0 -60.74,20 -60.74,44.67 0,24.67 27.19,44.67 60.74,44.67 z"
           id="path3027" />
      </g>
      <g
         id="g3035">
        <path
           class="cls-4"
           d="m 713.53,804.12 c 0,24.67 -27.19,44.67 -60.74,44.67 v -89.34 c 33.55,0 60.74,20 60.74,44.67 z"
           id="path3031" />
        <path
           class="cls-4"
           d="m 652.79,848.79 v 89.34 c -33.55,0 -60.74,-20 -60.74,-44.67 0,-24.67 27.19,-44.67 60.74,-44.67 z"
           id="path3033" />
      </g>
      <g
         id="g3041">
        <path
           class="cls-4"
           d="m 713.53,983.83 c 0,24.67 -27.19,44.67 -60.74,44.67 v -89.34 c 33.55,0 60.74,20 60.74,44.67 z"
           id="path3037" />
        <path
           class="cls-4"
           d="m 652.79,1028.5 v 89.34 c -33.55,0 -60.74,-20 -60.74,-44.67 0,-24.67 27.19,-44.67 60.74,-44.67 z"
           id="path3039" />
      </g>
      <g
         id="g3047">
        <path
           class="cls-3"
           d="m 713.53,936.88 c 0,-24.67 -27.19,-44.67 -60.74,-44.67 v 89.34 c 33.55,0 60.74,-20 60.74,-44.67 z"
           id="path3043" />
        <path
           class="cls-3"
           d="m 652.79,892.2 v -89.34 c -33.55,0 -60.74,20 -60.74,44.67 0,24.67 27.19,44.67 60.74,44.67 z"
           id="path3045" />
      </g>
      <g
         id="g3053">
        <path
           class="cls-5"
           d="m 713.53,1117.45 c 0,-24.67 -27.19,-44.67 -60.74,-44.67 v 89.34 c 33.55,0 60.74,-20 60.74,-44.67 z"
           id="path3049" />
        <path
           class="cls-5"
           d="m 652.79,1072.78 v -89.34 c -33.55,0 -60.74,20 -60.74,44.67 0,24.67 27.19,44.67 60.74,44.67 z"
           id="path3051" />
      </g>
      <path
         class="cls-7"
         d="m 533.7,1077.42 v 6.55 c 70.61,0 127.84,57.24 127.84,127.84 0,70.6 -57.23,127.84 -127.84,127.84 v 6.55 c 74.23,0 134.39,-60.17 134.39,-134.39 0,-74.22 -60.17,-134.39 -134.39,-134.39 z"
         id="path3055" />
      <path
         class="cls-1"
         d="m 837.17,936.17 v 6.55 c -70.61,0 -127.84,57.24 -127.84,127.84 0,70.6 57.23,127.84 127.84,127.84 v 6.55 c -74.23,0 -134.39,-60.17 -134.39,-134.39 0,-74.22 60.17,-134.39 134.39,-134.39 z"
         id="path3057" />
      <g
         id="g3063">
        <path
           class="cls-4"
           d="m 778.82,808.37 c 0,24.67 -27.19,44.67 -60.74,44.67 V 763.7 c 33.55,0 60.74,20 60.74,44.67 z"
           id="path3059" />
        <path
           class="cls-4"
           d="m 718.08,853.04 v 89.34 c -33.55,0 -60.74,-20 -60.74,-44.67 0,-24.67 27.19,-44.67 60.74,-44.67 z"
           id="path3061" />
      </g>
      <g
         id="g3069">
        <path
           class="cls-4"
           d="m 778.82,988.08 c 0,24.67 -27.19,44.67 -60.74,44.67 v -89.34 c 33.55,0 60.74,20 60.74,44.67 z"
           id="path3065" />
        <path
           class="cls-4"
           d="m 718.08,1032.75 v 89.34 c -33.55,0 -60.74,-20 -60.74,-44.67 0,-24.67 27.19,-44.67 60.74,-44.67 z"
           id="path3067" />
      </g>
      <g
         id="g3075">
        <path
           class="cls-3"
           d="m 778.82,941.12 c 0,-24.67 -27.19,-44.67 -60.74,-44.67 v 89.34 c 33.55,0 60.74,-20 60.74,-44.67 z"
           id="path3071" />
        <path
           class="cls-3"
           d="m 718.08,896.45 v -89.34 c -33.55,0 -60.74,20 -60.74,44.67 0,24.67 27.19,44.67 60.74,44.67 z"
           id="path3073" />
      </g>
      <g
         id="g3081">
        <path
           class="cls-5"
           d="m 778.82,1121.7 c 0,-24.67 -27.19,-44.67 -60.74,-44.67 v 89.34 c 33.55,0 60.74,-20 60.74,-44.67 z"
           id="path3077" />
        <path
           class="cls-5"
           d="m 718.08,1077.03 v -89.34 c -33.55,0 -60.74,20 -60.74,44.67 0,24.67 27.19,44.67 60.74,44.67 z"
           id="path3079" />
      </g>
      <g
         id="g3087">
        <path
           class="cls-5"
           d="m 897.91,806.24 c 0,24.67 -27.19,44.67 -60.74,44.67 v -89.34 c 33.55,0 60.74,20 60.74,44.67 z"
           id="path3083" />
        <path
           class="cls-5"
           d="m 837.17,850.92 v 89.34 c -33.55,0 -60.74,-20 -60.74,-44.67 0,-24.67 27.19,-44.67 60.74,-44.67 z"
           id="path3085" />
      </g>
      <g
         id="g3093">
        <path
           class="cls-2"
           d="m 897.91,985.95 c 0,24.67 -27.19,44.67 -60.74,44.67 v -89.34 c 33.55,0 60.74,20 60.74,44.67 z"
           id="path3089" />
        <path
           class="cls-2"
           d="m 837.17,1030.63 v 89.34 c -33.55,0 -60.74,-20 -60.74,-44.67 0,-24.67 27.19,-44.67 60.74,-44.67 z"
           id="path3091" />
      </g>
      <g
         id="g3099">
        <path
           class="cls-4"
           d="m 897.91,939 c 0,-24.67 -27.19,-44.67 -60.74,-44.67 v 89.34 c 33.55,0 60.74,-20 60.74,-44.67 z"
           id="path3095" />
        <path
           class="cls-4"
           d="m 837.17,894.33 v -89.34 c -33.55,0 -60.74,20 -60.74,44.67 0,24.67 27.19,44.67 60.74,44.67 z"
           id="path3097" />
      </g>
      <g
         id="g3105">
        <path
           class="cls-4"
           d="m 897.91,1119.58 c 0,-24.67 -27.19,-44.67 -60.74,-44.67 v 89.34 c 33.55,0 60.74,-20 60.74,-44.67 z"
           id="path3101" />
        <path
           class="cls-4"
           d="m 837.17,1074.9 v -89.34 c -33.55,0 -60.74,20 -60.74,44.67 0,24.67 27.19,44.67 60.74,44.67 z"
           id="path3103" />
      </g>
      <g
         id="g3111">
        <path
           class="cls-4"
           d="m 1017,804.12 c 0,24.67 -27.19,44.67 -60.74,44.67 v -89.34 c 33.55,0 60.74,20 60.74,44.67 z"
           id="path3107" />
        <path
           class="cls-4"
           d="m 956.26,848.79 v 89.34 c -33.55,0 -60.74,-20 -60.74,-44.67 0,-24.67 27.19,-44.67 60.74,-44.67 z"
           id="path3109" />
      </g>
      <g
         id="g3117">
        <path
           class="cls-4"
           d="m 1017,983.83 c 0,24.67 -27.19,44.67 -60.74,44.67 v -89.34 c 33.55,0 60.74,20 60.74,44.67 z"
           id="path3113" />
        <path
           class="cls-4"
           d="m 956.26,1028.5 v 89.34 c -33.55,0 -60.74,-20 -60.74,-44.67 0,-24.67 27.19,-44.67 60.74,-44.67 z"
           id="path3115" />
      </g>
      <g
         id="g3123">
        <path
           class="cls-3"
           d="m 1017,936.88 c 0,-24.67 -27.19,-44.67 -60.74,-44.67 v 89.34 c 33.55,0 60.74,-20 60.74,-44.67 z"
           id="path3119" />
        <path
           class="cls-3"
           d="m 956.26,892.2 v -89.34 c -33.55,0 -60.74,20 -60.74,44.67 0,24.67 27.19,44.67 60.74,44.67 z"
           id="path3121" />
      </g>
      <g
         id="g3129">
        <path
           class="cls-5"
           d="m 1017,1117.45 c 0,-24.67 -27.19,-44.67 -60.74,-44.67 v 89.34 c 33.55,0 60.74,-20 60.74,-44.67 z"
           id="path3125" />
        <path
           class="cls-5"
           d="m 956.26,1072.78 v -89.34 c -33.55,0 -60.74,20 -60.74,44.67 0,24.67 27.19,44.67 60.74,44.67 z"
           id="path3127" />
      </g>
      <path
         class="cls-7"
         d="m 837.17,1077.42 v 6.55 c 70.61,0 127.84,57.24 127.84,127.84 0,70.6 -57.23,127.84 -127.84,127.84 v 6.55 c 74.23,0 134.39,-60.17 134.39,-134.39 0,-74.22 -60.17,-134.39 -134.39,-134.39 z"
         id="path3131" />
      <path
         class="cls-1"
         d="m 1189.76,936.17 v 6.55 c -70.61,0 -127.84,57.24 -127.84,127.84 0,70.6 57.23,127.84 127.84,127.84 v 6.55 c -74.23,0 -134.39,-60.17 -134.39,-134.39 0,-74.22 60.17,-134.39 134.39,-134.39 z"
         id="path3133" />
      <g
         id="g3139">
        <path
           class="cls-4"
           d="m 1131.41,808.37 c 0,24.67 -27.19,44.67 -60.74,44.67 V 763.7 c 33.55,0 60.74,20 60.74,44.67 z"
           id="path3135" />
        <path
           class="cls-4"
           d="m 1070.67,853.04 v 89.34 c -33.55,0 -60.74,-20 -60.74,-44.67 0,-24.67 27.19,-44.67 60.74,-44.67 z"
           id="path3137" />
      </g>
      <g
         id="g3145">
        <path
           class="cls-4"
           d="m 1131.41,988.08 c 0,24.67 -27.19,44.67 -60.74,44.67 v -89.34 c 33.55,0 60.74,20 60.74,44.67 z"
           id="path3141" />
        <path
           class="cls-4"
           d="m 1070.67,1032.75 v 89.34 c -33.55,0 -60.74,-20 -60.74,-44.67 0,-24.67 27.19,-44.67 60.74,-44.67 z"
           id="path3143" />
      </g>
      <g
         id="g3151">
        <path
           class="cls-3"
           d="m 1131.41,941.12 c 0,-24.67 -27.19,-44.67 -60.74,-44.67 v 89.34 c 33.55,0 60.74,-20 60.74,-44.67 z"
           id="path3147" />
        <path
           class="cls-3"
           d="m 1070.67,896.45 v -89.34 c -33.55,0 -60.74,20 -60.74,44.67 0,24.67 27.19,44.67 60.74,44.67 z"
           id="path3149" />
      </g>
      <g
         id="g3157">
        <path
           class="cls-5"
           d="m 1131.41,1121.7 c 0,-24.67 -27.19,-44.67 -60.74,-44.67 v 89.34 c 33.55,0 60.74,-20 60.74,-44.67 z"
           id="path3153" />
        <path
           class="cls-5"
           d="m 1070.67,1077.03 v -89.34 c -33.55,0 -60.74,20 -60.74,44.67 0,24.67 27.19,44.67 60.74,44.67 z"
           id="path3155" />
      </g>
    </g>
  </g>
</svg>
